  0
SECTION
  2
HEADER
  9
$ACADVER
  1
AC1012
  9
$DWGCODEPAGE
  3
undefined
  9
$INSBASE
 10
0.0
 20
0.0
 30
0.0
  9
$EXTMIN
 10
1.000000000000000E+20
 20
1.000000000000000E+20
 30
1.000000000000000E+20
  9
$EXTMAX
 10
-1.000000000000000E+20
 20
-1.000000000000000E+20
 30
-1.000000000000000E+20
  9
$LIMMIN
 10
0.0
 20
0.0
  9
$LIMMAX
 10
12.0
 20
9.0
  9
$ORTHOMODE
 70
     0
  9
$REGENMODE
 70
     1
  9
$FILLMODE
 70
     1
  9
$QTEXTMODE
 70
     0
  9
$MIRRTEXT
 70
     1
  9
$DRAGMODE
 70
     2
  9
$LTSCALE
 40
1.0
  9
$OSMODE
 70
    37
  9
$ATTMODE
 70
     1
  9
$TEXTSIZE
 40
0.2
  9
$TRACEWID
 40
0.05
  9
$TEXTSTYLE
  7
STANDARD
  9
$CLAYER
  8
0
  9
$CELTYPE
  6
BYLAYER
  9
$CECOLOR
 62
   256
  9
$CELTSCALE
 40
1.0
  9
$DELOBJ
 70
     1
  9
$DISPSILH
 70
     0
  9
$DIMSCALE
 40
1.0
  9
$DIMASZ
 40
0.18
  9
$DIMEXO
 40
0.0625
  9
$DIMDLI
 40
0.38
  9
$DIMRND
 40
0.0
  9
$DIMDLE
 40
0.0
  9
$DIMEXE
 40
0.18
  9
$DIMTP
 40
0.0
  9
$DIMTM
 40
0.0
  9
$DIMTXT
 40
0.18
  9
$DIMCEN
 40
0.09
  9
$DIMTSZ
 40
0.0
  9
$DIMTOL
 70
     0
  9
$DIMLIM
 70
     0
  9
$DIMTIH
 70
     1
  9
$DIMTOH
 70
     1
  9
$DIMSE1
 70
     0
  9
$DIMSE2
 70
     0
  9
$DIMTAD
 70
     0
  9
$DIMZIN
 70
     0
  9
$DIMBLK
  1

  9
$DIMASO
 70
     1
  9
$DIMSHO
 70
     1
  9
$DIMPOST
  1

  9
$DIMAPOST
  1

  9
$DIMALT
 70
     0
  9
$DIMALTD
 70
     2
  9
$DIMALTF
 40
25.4
  9
$DIMLFAC
 40
1.0
  9
$DIMTOFL
 70
     0
  9
$DIMTVP
 40
0.0
  9
$DIMTIX
 70
     0
  9
$DIMSOXD
 70
     0
  9
$DIMSAH
 70
     0
  9
$DIMBLK1
  1

  9
$DIMBLK2
  1

  9
$DIMSTYLE
  2
STANDARD
  9
$DIMCLRD
 70
     0
  9
$DIMCLRE
 70
     0
  9
$DIMCLRT
 70
     0
  9
$DIMTFAC
 40
1.0
  9
$DIMGAP
 40
0.09
  9
$DIMJUST
 70
     0
  9
$DIMSD1
 70
     0
  9
$DIMSD2
 70
     0
  9
$DIMTOLJ
 70
     1
  9
$DIMTZIN
 70
     0
  9
$DIMALTZ
 70
     0
  9
$DIMALTTZ
 70
     0
  9
$DIMFIT
 70
     3
  9
$DIMUPT
 70
     0
  9
$DIMUNIT
 70
     2
  9
$DIMDEC
 70
     4
  9
$DIMTDEC
 70
     4
  9
$DIMALTU
 70
     2
  9
$DIMALTTD
 70
     2
  9
$DIMTXSTY
  7
STANDARD
  9
$DIMAUNIT
 70
     0
  9
$LUNITS
 70
     2
  9
$LUPREC
 70
     4
  9
$SKETCHINC
 40
0.1
  9
$FILLETRAD
 40
0.5
  9
$AUNITS
 70
     0
  9
$AUPREC
 70
     0
  9
$MENU
  1
.
  9
$ELEVATION
 40
0.0
  9
$PELEVATION
 40
0.0
  9
$THICKNESS
 40
0.0
  9
$LIMCHECK
 70
     0
  9
$CHAMFERA
 40
0.5
  9
$CHAMFERB
 40
0.5
  9
$CHAMFERC
 40
1.0
  9
$CHAMFERD
 40
0.0
  9
$SKPOLY
 70
     0
  9
$TDCREATE
 40
2457132.015034711
  9
$TDUPDATE
 40
2457132.015034711
  9
$TDINDWG
 40
0.0000000116
  9
$TDUSRTIMER
 40
0.0000000116
  9
$USRTIMER
 70
     1
  9
$ANGBASE
 50
0.0
  9
$ANGDIR
 70
     0
  9
$PDMODE
 70
     0
  9
$PDSIZE
 40
0.0
  9
$PLINEWID
 40
0.0
  9
$COORDS
 70
     1
  9
$SPLFRAME
 70
     0
  9
$SPLINETYPE
 70
     6
  9
$SPLINESEGS
 70
     8
  9
$ATTDIA
 70
     0
  9
$ATTREQ
 70
     1
  9
$HANDLING
 70
     1
  9
$HANDSEED
  5
10B
  9
$SURFTAB1
 70
     6
  9
$SURFTAB2
 70
     6
  9
$SURFTYPE
 70
     6
  9
$SURFU
 70
     6
  9
$SURFV
 70
     6
  9
$UCSNAME
  2

  9
$UCSORG
 10
0.0
 20
0.0
 30
0.0
  9
$UCSXDIR
 10
1.0
 20
0.0
 30
0.0
  9
$UCSYDIR
 10
0.0
 20
1.0
 30
0.0
  9
$PUCSNAME
  2

  9
$PUCSORG
 10
0.0
 20
0.0
 30
0.0
  9
$PUCSXDIR
 10
1.0
 20
0.0
 30
0.0
  9
$PUCSYDIR
 10
0.0
 20
1.0
 30
0.0
  9
$USERI1
 70
     0
  9
$USERI2
 70
     0
  9
$USERI3
 70
     0
  9
$USERI4
 70
     0
  9
$USERI5
 70
     0
  9
$USERR1
 40
0.0
  9
$USERR2
 40
0.0
  9
$USERR3
 40
0.0
  9
$USERR4
 40
0.0
  9
$USERR5
 40
0.0
  9
$WORLDVIEW
 70
     1
  9
$SHADEDGE
 70
     3
  9
$SHADEDIF
 70
    70
  9
$TILEMODE
 70
     1
  9
$MAXACTVP
 70
    64
  9
$PINSBASE
 10
0.0
 20
0.0
 30
0.0
  9
$PLIMCHECK
 70
     0
  9
$PEXTMIN
 10
1.000000000000000E+20
 20
1.000000000000000E+20
 30
1.000000000000000E+20
  9
$PEXTMAX
 10
-1.000000000000000E+20
 20
-1.000000000000000E+20
 30
-1.000000000000000E+20
  9
$PLIMMIN
 10
0.0
 20
0.0
  9
$PLIMMAX
 10
12.0
 20
9.0
  9
$UNITMODE
 70
     0
  9
$VISRETAIN
 70
     1
  9
$PLINEGEN
 70
     0
  9
$PSLTSCALE
 70
     1
  9
$TREEDEPTH
 70
  3020
  9
$PICKSTYLE
 70
     1
  9
$CMLSTYLE
  2
STANDARD
  9
$CMLJUST
 70
     0
  9
$CMLSCALE
 40
1.0
  9
$SAVEIMAGES
 70
     1
  0
ENDSEC
  0
SECTION
  2
CLASSES
  0
CLASS
  1
ACDBDICTIONARYWDFLT
  2
AcDbDictionaryWithDefault
  3
ObjectDBX Classes
 90
    32768
280
     0
281
     0
  0
CLASS
  1
VISUALSTYLE
  2
AcDbVisualStyle
  3
ObjectDBX Classes
 90
     4095
280
     0
281
     0
  0
CLASS
  1
MATERIAL
  2
AcDbMaterial
  3
ObjectDBX Classes
 90
     1153
280
     0
281
     0
  0
CLASS
  1
SUN
  2
AcDbSun
  3
SCENEOE
 90
     1024
280
     0
281
     0
  0
CLASS
  1
DICTIONARYVAR
  2
AcDbDictionaryVar
  3
ObjectDBX Classes
 90
        0
280
     0
281
     0
  0
CLASS
  1
XRECORD
  2
AcDbXrecord
  3
AutoCAD 2000
 90
    32768
280
     0
281
     0
  0
CLASS
  1
LWPOLYLINE
  2
AcDbPolyline
  3
AutoCAD 2000
 90
    32768
280
     0
281
     1
  0
CLASS
  1
HATCH
  2
AcDbHatch
  3
AutoCAD 2000
 90
    32768
280
     0
281
     1
  0
CLASS
  1
ACDBPLACEHOLDER
  2
AcDbPlaceHolder
  3
ObjectDBX Classes
 90
        0
280
     0
281
     0
  0
CLASS
  1
LAYOUT
  2
AcDbLayout
  3
ObjectDBX Classes
 90
        0
280
     0
281
     0
  0
ENDSEC
  0
SECTION
  2
TABLES
  0
TABLE
  2
VPORT
  5
8
330
0
100
AcDbSymbolTable
 70
     1
  0
VPORT
  5
29
330
8
100
AcDbSymbolTableRecord
100
AcDbViewportTableRecord
  2
*ACTIVE
 70
     0
 10
0.0
 20
0.0
 11
1.0
 21
1.0
 12
0.0
 22
0.0
 13
0.0
 23
0.0
 14
0.5
 24
0.5
 15
0.5
 25
0.5
 16
0.0
 26
0.0
 36
1.0
 17
15.0
 27
-10.0
 37
0.0
 40
20.0
 41
1.5
 42
50.0
 43
0.0
 44
0.0
 50
0.0
 51
0.0
 71
     0
 72
   100
 73
     1
 74
     3
 75
     0
 76
     0
 77
     0
 78
     0
  0
ENDTAB
  0
TABLE
  2
LTYPE
  5
5
330
0
100
AcDbSymbolTable
 70
     1
  0
LTYPE
  5
14
330
5
100
AcDbSymbolTableRecord
100
AcDbLinetypeTableRecord
  2
BYBLOCK
 70
     0
  3

 72
    65
 73
     0
 40
0.0
  0
LTYPE
  5
15
330
5
100
AcDbSymbolTableRecord
100
AcDbLinetypeTableRecord
  2
BYLAYER
 70
     0
  3

 72
    65
 73
     0
 40
0.0
  0
LTYPE
  5
16
330
5
100
AcDbSymbolTableRecord
100
AcDbLinetypeTableRecord
  2
CONTINUOUS
 70
     0
  3
Solid line
 72
    65
 73
     0
 40
0.0
  0
ENDTAB
  0
TABLE
  2
LAYER
  5
2
330
0
100
AcDbSymbolTable
 70
     2
  0
LAYER
  5
10
330
2
100
AcDbSymbolTableRecord
100
AcDbLayerTableRecord
  2
0
 70
     0
 62
     7
  6
CONTINUOUS
  0
LAYER
  5
40
330
2
100
AcDbSymbolTableRecord
100
AcDbLayerTableRecord
  2
LAYER_1
 70
     0
 62
     7
  6
CONTINUOUS
  0
ENDTAB
  0
TABLE
  2
STYLE
  5
3
330
0
100
AcDbSymbolTable
 70
     1
  0
STYLE
  5
11
330
3
100
AcDbSymbolTableRecord
100
AcDbTextStyleTableRecord
  2
STANDARD
 70
     0
 40
0.0
 41
1.0
 50
0.0
 71
     0
 42
0.2
  3
txt
  4

  0
ENDTAB
  0
TABLE
  2
VIEW
  5
6
330
0
100
AcDbSymbolTable
 70
     0
  0
ENDTAB
  0
TABLE
  2
UCS
  5
7
330
0
100
AcDbSymbolTable
 70
     0
  0
ENDTAB
  0
TABLE
  2
APPID
  5
9
330
0
100
AcDbSymbolTable
 70
     1
  0
APPID
  5
12
330
9
100
AcDbSymbolTableRecord
100
AcDbRegAppTableRecord
  2
ACAD
 70
     0
  0
ENDTAB
  0
TABLE
  2
DIMSTYLE
  5
A
330
0
100
AcDbSymbolTable
 70
     1
  0
DIMSTYLE
105
27
330
A
100
AcDbSymbolTableRecord
100
AcDbDimStyleTableRecord
  2
STANDARD
 70
     0
  3

  4

  5

  6

  7

 40
1.0
 41
0.18
 42
0.0625
 43
0.38
 44
0.18
 45
0.0
 46
0.0
 47
0.0
 48
0.0
140
0.18
141
0.09
142
0.0
143
25.4
144
1.0
145
0.0
146
1.0
147
0.09
 71
     0
 72
     0
 73
     1
 74
     1
 75
     0
 76
     0
 77
     0
 78
     0
170
     0
171
     2
172
     0
173
     0
174
     0
175
     0
176
     0
177
     0
178
     0
270
     2
271
     4
272
     4
273
     2
274
     2
340
11
275
     0
280
     0
281
     0
282
     0
283
     1
284
     0
285
     0
286
     0
287
     3
288
     0
  0
ENDTAB
  0
TABLE
  2
BLOCK_RECORD
  5
1
330
0
100
AcDbSymbolTable
 70
     1
  0
BLOCK_RECORD
  5
1F
330
1
100
AcDbSymbolTableRecord
100
AcDbBlockTableRecord
  2
*MODEL_SPACE
  0
BLOCK_RECORD
  5
1B
330
1
100
AcDbSymbolTableRecord
100
AcDbBlockTableRecord
  2
*PAPER_SPACE
  0
ENDTAB
  0
ENDSEC
  0
SECTION
  2
BLOCKS
  0
BLOCK
  5
20
330
1F
100
AcDbEntity
  8
0
100
AcDbBlockBegin
  2
*MODEL_SPACE
 70
     0
 10
0.0
 20
0.0
 30
0.0
  3
*MODEL_SPACE
  1

  0
ENDBLK
  5
21
330
1F
100
AcDbEntity
  8
0
100
AcDbBlockEnd
  0
BLOCK
  5
1C
330
1B
100
AcDbEntity
 67
     1
  8
0
100
AcDbBlockBegin
  2
*PAPER_SPACE
 70
     0
 10
0.0
 20
0.0
 30
0.0
  3
*PAPER_SPACE
  1

  0
ENDBLK
  5
1D
330
1B
100
AcDbEntity
 67
     1
  8
0
100
AcDbBlockEnd
  0
ENDSEC
  0
SECTION
  2
ENTITIES
  0
SPLINE
  5
41
330
1F
100
AcDbEntity
  8
LAYER_1
 62
   240
100
AcDbSpline
210
0.0
220
0.0
230
1.0
 70
    11
 71
     3
 72
    50
 73
    46
 74
     0
 42
0.0000000001
 43
0.0000000001
 12
1.0
 22
0.0
 32
0.0
 13
1.0
 23
0.0
 33
0.0
 40
0.0
 40
0.0
 40
0.0
 40
0.0
 40
1.0
 40
1.0
 40
1.0
 40
2.0
 40
2.0
 40
2.0
 40
3.0
 40
3.0
 40
3.0
 40
4.0
 40
4.0
 40
4.0
 40
5.0
 40
5.0
 40
5.0
 40
6.0
 40
6.0
 40
6.0
 40
7.0
 40
7.0
 40
7.0
 40
8.0
 40
8.0
 40
8.0
 40
9.0
 40
9.0
 40
9.0
 40
10.0
 40
10.0
 40
10.0
 40
11.0
 40
11.0
 40
11.0
 40
12.0
 40
12.0
 40
12.0
 40
13.0
 40
13.0
 40
13.0
 40
14.0
 40
14.0
 40
14.0
 40
15.0
 40
15.0
 40
15.0
 40
15.0
 10
2.233821886687464
 20
-1.285945021471725
 30
0.0
 10
2.233821886687464
 20
-1.285945021471725
 30
0.0
 10
3.655756049771601
 20
-1.285945021471725
 30
0.0
 10
3.655756049771601
 20
-1.285945021471725
 30
0.0
 10
3.655756049771601
 20
-1.285945021471725
 30
0.0
 10
3.871741748153618
 20
-7.769726265390355
 30
0.0
 10
3.871741748153618
 20
-8.37284238896186
 30
0.0
 10
3.871741748153618
 20
-8.421240302897672
 30
0.0
 10
3.823881816449127
 20
-8.41147649075852
 30
0.0
 10
3.823875119232866
 20
-8.41147649075852
 30
0.0
 10
3.792995551969385
 20
-8.405187818657243
 30
0.0
 10
3.759920493545287
 20
-8.403940680832862
 30
0.0
 10
3.72853147534915
 20
-8.401646110260572
 30
0.0
 10
3.696982149680694
 20
-8.39935018115034
 30
0.0
 10
3.665360912972346
 20
-8.397426491434342
 30
0.0
 10
3.633739493326364
 20
-8.396616802825065
 30
0.0
 10
3.56927415286134
 20
-8.39494580116497
 30
0.0
 10
3.504299360683553
 20
-8.399669437565093
 30
0.0
 10
3.440532308699529
 20
-8.4091411640482
 30
0.0
 10
3.405082620718126
 20
-8.414421801001696
 30
0.0
 10
3.36975927676148
 20
-8.421612542291857
 30
0.0
 10
3.334967121124022
 20
-8.430209370344793
 30
0.0
 10
3.274177984218365
 20
-8.44525381943745
 30
0.0
 10
3.213580401156706
 20
-8.461545406354439
 30
0.0
 10
3.154450039027829
 20
-8.482256317174132
 30
0.0
 10
3.100221281644773
 20
-8.50126769703709
 30
0.0
 10
3.047173093697413
 20
-8.535017854957307
 30
0.0
 10
2.990947285600289
 20
-8.546600749391448
 30
0.0
 10
2.913952150076928
 20
-8.562467113934796
 30
0.0
 10
2.846934116896477
 20
-8.533360438676556
 30
0.0
 10
2.781036877484111
 20
-8.4976458349023
 30
0.0
 10
2.735186223334772
 20
-8.472796817532462
 30
0.0
 10
2.684102547872019
 20
-8.457990112578448
 30
0.0
 10
2.633979225344774
 20
-8.444285181889768
 30
0.0
 10
2.506086467370917
 20
-8.40931369836595
 30
0.0
 10
2.375334045996043
 20
-8.403834714873925
 30
0.0
 10
2.240361888141529
 20
-8.403277714320565
 30
0.0
 10
2.197157665822816
 20
-8.40309159462346
 30
0.0
 10
2.154279492600267
 20
-8.403183975203067
 30
0.0
 10
2.11125459728444
 20
-8.407576128347046
 30
0.0
 10
2.085337769752376
 20
-8.410202182175478
 30
0.0
 10
2.039420547245919
 20
-8.422673560419133
 30
0.0
 10
2.039659649916454
 20
-8.381466387773495
 30
0.0
 10
2.03987158182896
 20
-8.345035834507472
 30
0.0
 10
2.233821886687464
 20
-1.285945021471725
 30
0.0
 10
2.233821886687464
 20
-1.285945021471725
 30
0.0
  0
POLYLINE
  5
42
330
1F
100
AcDbEntity
  8
LAYER_1
 62
   240
100
AcDb2dPolyline
 66
     1
 10
0.0
 20
0.0
 30
0.0
  0
VERTEX
  5
43
330
42
100
AcDbEntity
  8
LAYER_1
 62
   240
100
AcDbVertex
100
AcDb2dVertex
 10
2.213549784132902
 20
-2.012670436138756
 30
0.0
  0
VERTEX
  5
44
330
42
100
AcDbEntity
  8
LAYER_1
 62
   240
100
AcDbVertex
100
AcDb2dVertex
 10
3.67986185505582
 20
-2.012670436138756
 30
0.0
  0
SEQEND
  5
45
330
42
100
AcDbEntity
  8
LAYER_1
 62
   240
  0
POLYLINE
  5
46
330
1F
100
AcDbEntity
  8
LAYER_1
 62
   240
100
AcDb2dPolyline
 66
     1
 10
0.0
 20
0.0
 30
0.0
  0
VERTEX
  5
47
330
46
100
AcDbEntity
  8
LAYER_1
 62
   240
100
AcDbVertex
100
AcDb2dVertex
 10
2.21193040695525
 20
-2.071628265443628
 30
0.0
  0
VERTEX
  5
48
330
46
100
AcDbEntity
  8
LAYER_1
 62
   240
100
AcDbVertex
100
AcDb2dVertex
 10
3.67986185505582
 20
-2.071628265443628
 30
0.0
  0
SEQEND
  5
49
330
46
100
AcDbEntity
  8
LAYER_1
 62
   240
  0
POLYLINE
  5
4A
330
1F
100
AcDbEntity
  8
LAYER_1
 62
   240
100
AcDb2dPolyline
 66
     1
 10
0.0
 20
0.0
 30
0.0
  0
VERTEX
  5
4B
330
4A
100
AcDbEntity
  8
LAYER_1
 62
   240
100
AcDbVertex
100
AcDb2dVertex
 10
2.194152579986406
 20
-2.714704423836426
 30
0.0
  0
VERTEX
  5
4C
330
4A
100
AcDbEntity
  8
LAYER_1
 62
   240
100
AcDbVertex
100
AcDb2dVertex
 10
3.701393322244333
 20
-2.714704423836426
 30
0.0
  0
SEQEND
  5
4D
330
4A
100
AcDbEntity
  8
LAYER_1
 62
   240
  0
POLYLINE
  5
4E
330
1F
100
AcDbEntity
  8
LAYER_1
 62
   240
100
AcDb2dPolyline
 66
     1
 10
0.0
 20
0.0
 30
0.0
  0
VERTEX
  5
4F
330
4E
100
AcDbEntity
  8
LAYER_1
 62
   240
100
AcDbVertex
100
AcDb2dVertex
 10
2.194152579986406
 20
-2.778081577043976
 30
0.0
  0
VERTEX
  5
50
330
4E
100
AcDbEntity
  8
LAYER_1
 62
   240
100
AcDbVertex
100
AcDb2dVertex
 10
3.702587477059081
 20
-2.778081577043976
 30
0.0
  0
SEQEND
  5
51
330
4E
100
AcDbEntity
  8
LAYER_1
 62
   240
  0
POLYLINE
  5
52
330
1F
100
AcDbEntity
  8
LAYER_1
 62
   240
100
AcDb2dPolyline
 66
     1
 10
0.0
 20
0.0
 30
0.0
  0
VERTEX
  5
53
330
52
100
AcDbEntity
  8
LAYER_1
 62
   240
100
AcDbVertex
100
AcDb2dVertex
 10
2.175884320835406
 20
-3.380362199785433
 30
0.0
  0
VERTEX
  5
54
330
52
100
AcDbEntity
  8
LAYER_1
 62
   240
100
AcDbVertex
100
AcDb2dVertex
 10
3.721745578535042
 20
-3.380362199785433
 30
0.0
  0
SEQEND
  5
55
330
52
100
AcDbEntity
  8
LAYER_1
 62
   240
  0
POLYLINE
  5
56
330
1F
100
AcDbEntity
  8
LAYER_1
 62
   240
100
AcDb2dPolyline
 66
     1
 10
0.0
 20
0.0
 30
0.0
  0
VERTEX
  5
57
330
56
100
AcDbEntity
  8
LAYER_1
 62
   240
100
AcDbVertex
100
AcDb2dVertex
 10
2.174510839017785
 20
-3.430518061809178
 30
0.0
  0
VERTEX
  5
58
330
56
100
AcDbEntity
  8
LAYER_1
 62
   240
100
AcDbVertex
100
AcDb2dVertex
 10
3.723071604452861
 20
-3.430518061809178
 30
0.0
  0
SEQEND
  5
59
330
56
100
AcDbEntity
  8
LAYER_1
 62
   240
  0
POLYLINE
  5
5A
330
1F
100
AcDbEntity
  8
LAYER_1
 62
   240
100
AcDb2dPolyline
 66
     1
 10
0.0
 20
0.0
 30
0.0
  0
VERTEX
  5
5B
330
5A
100
AcDbEntity
  8
LAYER_1
 62
   240
100
AcDbVertex
100
AcDb2dVertex
 10
2.160833079433321
 20
-3.98645080435881
 30
0.0
  0
VERTEX
  5
5C
330
5A
100
AcDbEntity
  8
LAYER_1
 62
   240
100
AcDbVertex
100
AcDb2dVertex
 10
3.740943077610129
 20
-3.98645080435881
 30
0.0
  0
SEQEND
  5
5D
330
5A
100
AcDbEntity
  8
LAYER_1
 62
   240
  0
POLYLINE
  5
5E
330
1F
100
AcDbEntity
  8
LAYER_1
 62
   240
100
AcDb2dPolyline
 66
     1
 10
0.0
 20
0.0
 30
0.0
  0
VERTEX
  5
5F
330
5E
100
AcDbEntity
  8
LAYER_1
 62
   240
100
AcDbVertex
100
AcDb2dVertex
 10
2.15934009970398
 20
-4.040884702340009
 30
0.0
  0
VERTEX
  5
60
330
5E
100
AcDbEntity
  8
LAYER_1
 62
   240
100
AcDbVertex
100
AcDb2dVertex
 10
3.740943077610129
 20
-4.040884702340009
 30
0.0
  0
SEQEND
  5
61
330
5E
100
AcDbEntity
  8
LAYER_1
 62
   240
  0
POLYLINE
  5
62
330
1F
100
AcDbEntity
  8
LAYER_1
 62
   240
100
AcDb2dPolyline
 66
     1
 10
0.0
 20
0.0
 30
0.0
  0
VERTEX
  5
63
330
62
100
AcDbEntity
  8
LAYER_1
 62
   240
100
AcDbVertex
100
AcDb2dVertex
 10
2.143320167355139
 20
-4.565672962728828
 30
0.0
  0
VERTEX
  5
64
330
62
100
AcDbEntity
  8
LAYER_1
 62
   240
100
AcDbVertex
100
AcDb2dVertex
 10
3.759059274352062
 20
-4.565672962728828
 30
0.0
  0
SEQEND
  5
65
330
62
100
AcDbEntity
  8
LAYER_1
 62
   240
  0
POLYLINE
  5
66
330
1F
100
AcDbEntity
  8
LAYER_1
 62
   240
100
AcDb2dPolyline
 66
     1
 10
0.0
 20
0.0
 30
0.0
  0
VERTEX
  5
67
330
66
100
AcDbEntity
  8
LAYER_1
 62
   240
100
AcDbVertex
100
AcDb2dVertex
 10
2.143320167355139
 20
-4.621155651995878
 30
0.0
  0
VERTEX
  5
68
330
66
100
AcDbEntity
  8
LAYER_1
 62
   240
100
AcDbVertex
100
AcDb2dVertex
 10
3.761227407005777
 20
-4.621155651995878
 30
0.0
  0
SEQEND
  5
69
330
66
100
AcDbEntity
  8
LAYER_1
 62
   240
  0
POLYLINE
  5
6A
330
1F
100
AcDbEntity
  8
LAYER_1
 62
   240
100
AcDb2dPolyline
 66
     1
 10
0.0
 20
0.0
 30
0.0
  0
VERTEX
  5
6B
330
6A
100
AcDbEntity
  8
LAYER_1
 62
   240
100
AcDbVertex
100
AcDb2dVertex
 10
2.128441460266458
 20
-5.125538672600379
 30
0.0
  0
VERTEX
  5
6C
330
6A
100
AcDbEntity
  8
LAYER_1
 62
   240
100
AcDbVertex
100
AcDb2dVertex
 10
3.778933231465897
 20
-5.125538672600379
 30
0.0
  0
SEQEND
  5
6D
330
6A
100
AcDbEntity
  8
LAYER_1
 62
   240
  0
POLYLINE
  5
6E
330
1F
100
AcDbEntity
  8
LAYER_1
 62
   240
100
AcDb2dPolyline
 66
     1
 10
0.0
 20
0.0
 30
0.0
  0
VERTEX
  5
6F
330
6E
100
AcDbEntity
  8
LAYER_1
 62
   240
100
AcDbVertex
100
AcDb2dVertex
 10
2.128441460266458
 20
-5.169665343268421
 30
0.0
  0
VERTEX
  5
70
330
6E
100
AcDbEntity
  8
LAYER_1
 62
   240
100
AcDbVertex
100
AcDb2dVertex
 10
3.786515326019248
 20
-5.169665343268421
 30
0.0
  0
SEQEND
  5
71
330
6E
100
AcDbEntity
  8
LAYER_1
 62
   240
  0
POLYLINE
  5
72
330
1F
100
AcDbEntity
  8
LAYER_1
 62
   240
100
AcDb2dPolyline
 66
     1
 10
0.0
 20
0.0
 30
0.0
  0
VERTEX
  5
73
330
72
100
AcDbEntity
  8
LAYER_1
 62
   240
100
AcDbVertex
100
AcDb2dVertex
 10
2.11452459801146
 20
-5.633346567339117
 30
0.0
  0
VERTEX
  5
74
330
72
100
AcDbEntity
  8
LAYER_1
 62
   240
100
AcDbVertex
100
AcDb2dVertex
 10
3.794787368767288
 20
-5.633346567339117
 30
0.0
  0
SEQEND
  5
75
330
72
100
AcDbEntity
  8
LAYER_1
 62
   240
  0
POLYLINE
  5
76
330
1F
100
AcDbEntity
  8
LAYER_1
 62
   240
100
AcDb2dPolyline
 66
     1
 10
0.0
 20
0.0
 30
0.0
  0
VERTEX
  5
77
330
76
100
AcDbEntity
  8
LAYER_1
 62
   240
100
AcDbVertex
100
AcDb2dVertex
 10
2.112978581880447
 20
-5.689916086954213
 30
0.0
  0
VERTEX
  5
78
330
76
100
AcDbEntity
  8
LAYER_1
 62
   240
100
AcDbVertex
100
AcDb2dVertex
 10
3.795496525551471
 20
-5.689916086954213
 30
0.0
  0
SEQEND
  5
79
330
76
100
AcDbEntity
  8
LAYER_1
 62
   240
  0
POLYLINE
  5
7A
330
1F
100
AcDbEntity
  8
LAYER_1
 62
   240
100
AcDb2dPolyline
 66
     1
 10
0.0
 20
0.0
 30
0.0
  0
VERTEX
  5
7B
330
7A
100
AcDbEntity
  8
LAYER_1
 62
   240
100
AcDbVertex
100
AcDb2dVertex
 10
2.101316944498409
 20
-6.115639761119862
 30
0.0
  0
VERTEX
  5
7C
330
7A
100
AcDbEntity
  8
LAYER_1
 62
   240
100
AcDbVertex
100
AcDb2dVertex
 10
3.818780601976464
 20
-6.115639761119862
 30
0.0
  0
SEQEND
  5
7D
330
7A
100
AcDbEntity
  8
LAYER_1
 62
   240
  0
POLYLINE
  5
7E
330
1F
100
AcDbEntity
  8
LAYER_1
 62
   240
100
AcDb2dPolyline
 66
     1
 10
0.0
 20
0.0
 30
0.0
  0
VERTEX
  5
7F
330
7E
100
AcDbEntity
  8
LAYER_1
 62
   240
100
AcDbVertex
100
AcDb2dVertex
 10
2.099765442258028
 20
-6.172197053893531
 30
0.0
  0
VERTEX
  5
80
330
7E
100
AcDbEntity
  8
LAYER_1
 62
   240
100
AcDbVertex
100
AcDb2dVertex
 10
3.818780601976464
 20
-6.172197053893531
 30
0.0
  0
SEQEND
  5
81
330
7E
100
AcDbEntity
  8
LAYER_1
 62
   240
  0
POLYLINE
  5
82
330
1F
100
AcDbEntity
  8
LAYER_1
 62
   240
100
AcDb2dPolyline
 66
     1
 10
0.0
 20
0.0
 30
0.0
  0
VERTEX
  5
83
330
82
100
AcDbEntity
  8
LAYER_1
 62
   240
100
AcDbVertex
100
AcDb2dVertex
 10
2.088614614805768
 20
-6.579705451426181
 30
0.0
  0
VERTEX
  5
84
330
82
100
AcDbEntity
  8
LAYER_1
 62
   240
100
AcDbVertex
100
AcDb2dVertex
 10
3.824112767892252
 20
-6.579705451426181
 30
0.0
  0
SEQEND
  5
85
330
82
100
AcDbEntity
  8
LAYER_1
 62
   240
  0
POLYLINE
  5
86
330
1F
100
AcDbEntity
  8
LAYER_1
 62
   240
100
AcDb2dPolyline
 66
     1
 10
0.0
 20
0.0
 30
0.0
  0
VERTEX
  5
87
330
86
100
AcDbEntity
  8
LAYER_1
 62
   240
100
AcDbVertex
100
AcDb2dVertex
 10
2.088614614805768
 20
-6.638584485530828
 30
0.0
  0
VERTEX
  5
88
330
86
100
AcDbEntity
  8
LAYER_1
 62
   240
100
AcDbVertex
100
AcDb2dVertex
 10
3.826282352919697
 20
-6.638584485530828
 30
0.0
  0
SEQEND
  5
89
330
86
100
AcDbEntity
  8
LAYER_1
 62
   240
  0
POLYLINE
  5
8A
330
1F
100
AcDbEntity
  8
LAYER_1
 62
   240
100
AcDb2dPolyline
 66
     1
 10
0.0
 20
0.0
 30
0.0
  0
VERTEX
  5
8B
330
8A
100
AcDbEntity
  8
LAYER_1
 62
   240
100
AcDbVertex
100
AcDb2dVertex
 10
2.076474668488067
 20
-7.023591419245399
 30
0.0
  0
VERTEX
  5
8C
330
8A
100
AcDbEntity
  8
LAYER_1
 62
   240
100
AcDbVertex
100
AcDb2dVertex
 10
3.838487457419786
 20
-7.023591419245399
 30
0.0
  0
SEQEND
  5
8D
330
8A
100
AcDbEntity
  8
LAYER_1
 62
   240
  0
POLYLINE
  5
8E
330
1F
100
AcDbEntity
  8
LAYER_1
 62
   240
100
AcDb2dPolyline
 66
     1
 10
0.0
 20
0.0
 30
0.0
  0
VERTEX
  5
8F
330
8E
100
AcDbEntity
  8
LAYER_1
 62
   240
100
AcDbVertex
100
AcDb2dVertex
 10
2.074870235227321
 20
-7.082417470370602
 30
0.0
  0
VERTEX
  5
90
330
8E
100
AcDbEntity
  8
LAYER_1
 62
   240
100
AcDbVertex
100
AcDb2dVertex
 10
3.839018645738975
 20
-7.082417470370602
 30
0.0
  0
SEQEND
  5
91
330
8E
100
AcDbEntity
  8
LAYER_1
 62
   240
  0
POLYLINE
  5
92
330
1F
100
AcDbEntity
  8
LAYER_1
 62
   240
100
AcDb2dPolyline
 66
     1
 10
0.0
 20
0.0
 30
0.0
  0
VERTEX
  5
93
330
92
100
AcDbEntity
  8
LAYER_1
 62
   240
100
AcDbVertex
100
AcDb2dVertex
 10
2.064793959617683
 20
-7.451399090603419
 30
0.0
  0
VERTEX
  5
94
330
92
100
AcDbEntity
  8
LAYER_1
 62
   240
100
AcDbVertex
100
AcDb2dVertex
 10
3.84831919620731
 20
-7.451399090603419
 30
0.0
  0
SEQEND
  5
95
330
92
100
AcDbEntity
  8
LAYER_1
 62
   240
  0
POLYLINE
  5
96
330
1F
100
AcDbEntity
  8
LAYER_1
 62
   240
100
AcDb2dPolyline
 66
     1
 10
0.0
 20
0.0
 30
0.0
  0
VERTEX
  5
97
330
96
100
AcDbEntity
  8
LAYER_1
 62
   240
100
AcDbVertex
100
AcDb2dVertex
 10
2.063427321490104
 20
-7.512572695280369
 30
0.0
  0
VERTEX
  5
98
330
96
100
AcDbEntity
  8
LAYER_1
 62
   240
100
AcDbVertex
100
AcDb2dVertex
 10
3.84965871457742
 20
-7.512572695280369
 30
0.0
  0
SEQEND
  5
99
330
96
100
AcDbEntity
  8
LAYER_1
 62
   240
  0
POLYLINE
  5
9A
330
1F
100
AcDbEntity
  8
LAYER_1
 62
   240
100
AcDb2dPolyline
 66
     1
 10
0.0
 20
0.0
 30
0.0
  0
VERTEX
  5
9B
330
9A
100
AcDbEntity
  8
LAYER_1
 62
   240
100
AcDbVertex
100
AcDb2dVertex
 10
2.053988149155341
 20
-7.847842196655165
 30
0.0
  0
VERTEX
  5
9C
330
9A
100
AcDbEntity
  8
LAYER_1
 62
   240
100
AcDbVertex
100
AcDb2dVertex
 10
3.857592575917629
 20
-7.847842196655165
 30
0.0
  0
SEQEND
  5
9D
330
9A
100
AcDbEntity
  8
LAYER_1
 62
   240
  0
POLYLINE
  5
9E
330
1F
100
AcDbEntity
  8
LAYER_1
 62
   240
100
AcDb2dPolyline
 66
     1
 10
0.0
 20
0.0
 30
0.0
  0
VERTEX
  5
9F
330
9E
100
AcDbEntity
  8
LAYER_1
 62
   240
100
AcDbVertex
100
AcDb2dVertex
 10
2.053988149155341
 20
-7.913354971496624
 30
0.0
  0
VERTEX
  5
A0
330
9E
100
AcDbEntity
  8
LAYER_1
 62
   240
100
AcDbVertex
100
AcDb2dVertex
 10
3.857592575917629
 20
-7.913354971496624
 30
0.0
  0
SEQEND
  5
A1
330
9E
100
AcDbEntity
  8
LAYER_1
 62
   240
  0
SPLINE
  5
A2
330
1F
100
AcDbEntity
  8
LAYER_1
 62
   240
100
AcDbSpline
210
0.0
220
0.0
230
1.0
 70
    11
 71
     3
 72
    17
 73
    13
 74
     0
 42
0.0000000001
 43
0.0000000001
 12
1.0
 22
0.0
 32
0.0
 13
1.0
 23
0.0
 33
0.0
 40
0.0
 40
0.0
 40
0.0
 40
0.0
 40
1.0
 40
1.0
 40
1.0
 40
2.0
 40
2.0
 40
2.0
 40
3.0
 40
3.0
 40
3.0
 40
4.0
 40
4.0
 40
4.0
 40
4.0
 10
2.344719364511295
 20
-1.964981679005013
 30
0.0
 10
2.344719364511295
 20
-1.981837059165072
 30
0.0
 10
2.331034868693349
 20
-1.995548782543437
 30
0.0
 10
2.314152261745082
 20
-1.995548782543437
 30
0.0
 10
2.297283296631829
 20
-1.995548782543437
 30
0.0
 10
2.283585158978869
 20
-1.981837059165072
 30
0.0
 10
2.283585158978869
 20
-1.964981679005013
 30
0.0
 10
2.283585158978869
 20
-1.948126298844992
 30
0.0
 10
2.297283296631829
 20
-1.934414575466614
 30
0.0
 10
2.314152261745082
 20
-1.934414575466614
 30
0.0
 10
2.331034868693349
 20
-1.934414575466614
 30
0.0
 10
2.344719364511295
 20
-1.948126298844992
 30
0.0
 10
2.344719364511295
 20
-1.964981679005013
 30
0.0
  0
SPLINE
  5
A3
330
1F
100
AcDbEntity
  8
LAYER_1
 62
   240
100
AcDbSpline
210
0.0
220
0.0
230
1.0
 70
    11
 71
     3
 72
    17
 73
    13
 74
     0
 42
0.0000000001
 43
0.0000000001
 12
1.0
 22
0.0
 32
0.0
 13
1.0
 23
0.0
 33
0.0
 40
0.0
 40
0.0
 40
0.0
 40
0.0
 40
1.0
 40
1.0
 40
1.0
 40
2.0
 40
2.0
 40
2.0
 40
3.0
 40
3.0
 40
3.0
 40
4.0
 40
4.0
 40
4.0
 40
4.0
 10
2.344719364511295
 20
-1.19741114200743
 30
0.0
 10
2.344719364511295
 20
-1.214266522167488
 30
0.0
 10
2.331034868693349
 20
-1.227978245545854
 30
0.0
 10
2.314152261745082
 20
-1.227978245545854
 30
0.0
 10
2.297283296631829
 20
-1.227978245545854
 30
0.0
 10
2.283585158978869
 20
-1.214266522167488
 30
0.0
 10
2.283585158978869
 20
-1.19741114200743
 30
0.0
 10
2.283585158978869
 20
-1.180555761847409
 30
0.0
 10
2.297283296631829
 20
-1.166844038469031
 30
0.0
 10
2.314152261745082
 20
-1.166844038469031
 30
0.0
 10
2.331034868693349
 20
-1.166844038469031
 30
0.0
 10
2.344719364511295
 20
-1.180555761847409
 30
0.0
 10
2.344719364511295
 20
-1.19741114200743
 30
0.0
  0
SPLINE
  5
A4
330
1F
100
AcDbEntity
  8
LAYER_1
 62
   240
100
AcDbSpline
210
0.0
220
0.0
230
1.0
 70
    11
 71
     3
 72
    17
 73
    13
 74
     0
 42
0.0000000001
 43
0.0000000001
 12
1.0
 22
0.0
 32
0.0
 13
1.0
 23
0.0
 33
0.0
 40
0.0
 40
0.0
 40
0.0
 40
0.0
 40
1.0
 40
1.0
 40
1.0
 40
2.0
 40
2.0
 40
2.0
 40
3.0
 40
3.0
 40
3.0
 40
4.0
 40
4.0
 40
4.0
 40
4.0
 10
2.693831445464614
 20
-1.964981679005013
 30
0.0
 10
2.693831445464614
 20
-1.981837059165072
 30
0.0
 10
2.680145534652739
 20
-1.995548782543437
 30
0.0
 10
2.663264342698401
 20
-1.995548782543437
 30
0.0
 10
2.646395377585148
 20
-1.995548782543437
 30
0.0
 10
2.632697239932175
 20
-1.981837059165072
 30
0.0
 10
2.632697239932175
 20
-1.964981679005013
 30
0.0
 10
2.632697239932175
 20
-1.948126298844992
 30
0.0
 10
2.646395377585148
 20
-1.934414575466614
 30
0.0
 10
2.663264342698401
 20
-1.934414575466614
 30
0.0
 10
2.680145534652739
 20
-1.934414575466614
 30
0.0
 10
2.693831445464614
 20
-1.948126298844992
 30
0.0
 10
2.693831445464614
 20
-1.964981679005013
 30
0.0
  0
SPLINE
  5
A5
330
1F
100
AcDbEntity
  8
LAYER_1
 62
   240
100
AcDbSpline
210
0.0
220
0.0
230
1.0
 70
    11
 71
     3
 72
    17
 73
    13
 74
     0
 42
0.0000000001
 43
0.0000000001
 12
1.0
 22
0.0
 32
0.0
 13
1.0
 23
0.0
 33
0.0
 40
0.0
 40
0.0
 40
0.0
 40
0.0
 40
1.0
 40
1.0
 40
1.0
 40
2.0
 40
2.0
 40
2.0
 40
3.0
 40
3.0
 40
3.0
 40
4.0
 40
4.0
 40
4.0
 40
4.0
 10
2.705165299298819
 20
-1.19741114200743
 30
0.0
 10
2.705165299298819
 20
-1.214266522167488
 30
0.0
 10
2.691479388486944
 20
-1.227978245545854
 30
0.0
 10
2.674598196532606
 20
-1.227978245545854
 30
0.0
 10
2.657729231419353
 20
-1.227978245545854
 30
0.0
 10
2.64403109376638
 20
-1.214266522167488
 30
0.0
 10
2.64403109376638
 20
-1.19741114200743
 30
0.0
 10
2.64403109376638
 20
-1.180555761847409
 30
0.0
 10
2.657729231419353
 20
-1.166844038469031
 30
0.0
 10
2.674598196532606
 20
-1.166844038469031
 30
0.0
 10
2.691479388486944
 20
-1.166844038469031
 30
0.0
 10
2.705165299298819
 20
-1.180555761847409
 30
0.0
 10
2.705165299298819
 20
-1.19741114200743
 30
0.0
  0
SPLINE
  5
A6
330
1F
100
AcDbEntity
  8
LAYER_1
 62
   240
100
AcDbSpline
210
0.0
220
0.0
230
1.0
 70
    11
 71
     3
 72
    17
 73
    13
 74
     0
 42
0.0000000001
 43
0.0000000001
 12
1.0
 22
0.0
 32
0.0
 13
1.0
 23
0.0
 33
0.0
 40
0.0
 40
0.0
 40
0.0
 40
0.0
 40
1.0
 40
1.0
 40
1.0
 40
2.0
 40
2.0
 40
2.0
 40
3.0
 40
3.0
 40
3.0
 40
4.0
 40
4.0
 40
4.0
 40
4.0
 10
3.068439645995302
 20
-1.964981679005013
 30
0.0
 10
3.068439645995302
 20
-1.981837059165072
 30
0.0
 10
3.054755093721332
 20
-1.995548782543437
 30
0.0
 10
3.037872543229089
 20
-1.995548782543437
 30
0.0
 10
3.021003578115824
 20
-1.995548782543437
 30
0.0
 10
3.007305440462877
 20
-1.981837059165072
 30
0.0
 10
3.007305440462877
 20
-1.964981679005013
 30
0.0
 10
3.007305440462877
 20
-1.948126298844992
 30
0.0
 10
3.021003578115824
 20
-1.934414575466614
 30
0.0
 10
3.037872543229089
 20
-1.934414575466614
 30
0.0
 10
3.054755093721332
 20
-1.934414575466614
 30
0.0
 10
3.068439645995302
 20
-1.948126298844992
 30
0.0
 10
3.068439645995302
 20
-1.964981679005013
 30
0.0
  0
SPLINE
  5
A7
330
1F
100
AcDbEntity
  8
LAYER_1
 62
   240
100
AcDbSpline
210
0.0
220
0.0
230
1.0
 70
    11
 71
     3
 72
    17
 73
    13
 74
     0
 42
0.0000000001
 43
0.0000000001
 12
1.0
 22
0.0
 32
0.0
 13
1.0
 23
0.0
 33
0.0
 40
0.0
 40
0.0
 40
0.0
 40
0.0
 40
1.0
 40
1.0
 40
1.0
 40
2.0
 40
2.0
 40
2.0
 40
3.0
 40
3.0
 40
3.0
 40
4.0
 40
4.0
 40
4.0
 40
4.0
 10
3.068439645995302
 20
-1.19741114200743
 30
0.0
 10
3.068439645995302
 20
-1.214266522167488
 30
0.0
 10
3.054755093721332
 20
-1.227978245545854
 30
0.0
 10
3.037872543229089
 20
-1.227978245545854
 30
0.0
 10
3.021003578115824
 20
-1.227978245545854
 30
0.0
 10
3.007305440462877
 20
-1.214266522167488
 30
0.0
 10
3.007305440462877
 20
-1.19741114200743
 30
0.0
 10
3.007305440462877
 20
-1.180555761847409
 30
0.0
 10
3.021003578115824
 20
-1.166844038469031
 30
0.0
 10
3.037872543229089
 20
-1.166844038469031
 30
0.0
 10
3.054755093721332
 20
-1.166844038469031
 30
0.0
 10
3.068439645995302
 20
-1.180555761847409
 30
0.0
 10
3.068439645995302
 20
-1.19741114200743
 30
0.0
  0
SPLINE
  5
A8
330
1F
100
AcDbEntity
  8
LAYER_1
 62
   240
100
AcDbSpline
210
0.0
220
0.0
230
1.0
 70
    11
 71
     3
 72
    17
 73
    13
 74
     0
 42
0.0000000001
 43
0.0000000001
 12
1.0
 22
0.0
 32
0.0
 13
1.0
 23
0.0
 33
0.0
 40
0.0
 40
0.0
 40
0.0
 40
0.0
 40
1.0
 40
1.0
 40
1.0
 40
2.0
 40
2.0
 40
2.0
 40
3.0
 40
3.0
 40
3.0
 40
4.0
 40
4.0
 40
4.0
 40
4.0
 10
3.433758640228979
 20
-1.964981679005013
 30
0.0
 10
3.433758640228979
 20
-1.981837059165072
 30
0.0
 10
3.420072729417092
 20
-1.995548782543437
 30
0.0
 10
3.403191537462741
 20
-1.995548782543437
 30
0.0
 10
3.386322572349501
 20
-1.995548782543437
 30
0.0
 10
3.372624434696515
 20
-1.981837059165072
 30
0.0
 10
3.372624434696515
 20
-1.964981679005013
 30
0.0
 10
3.372624434696515
 20
-1.948126298844992
 30
0.0
 10
3.386322572349501
 20
-1.934414575466614
 30
0.0
 10
3.403191537462741
 20
-1.934414575466614
 30
0.0
 10
3.420072729417092
 20
-1.934414575466614
 30
0.0
 10
3.433758640228979
 20
-1.948126298844992
 30
0.0
 10
3.433758640228979
 20
-1.964981679005013
 30
0.0
  0
SPLINE
  5
A9
330
1F
100
AcDbEntity
  8
LAYER_1
 62
   240
100
AcDbSpline
210
0.0
220
0.0
230
1.0
 70
    11
 71
     3
 72
    17
 73
    13
 74
     0
 42
0.0000000001
 43
0.0000000001
 12
1.0
 22
0.0
 32
0.0
 13
1.0
 23
0.0
 33
0.0
 40
0.0
 40
0.0
 40
0.0
 40
0.0
 40
1.0
 40
1.0
 40
1.0
 40
2.0
 40
2.0
 40
2.0
 40
3.0
 40
3.0
 40
3.0
 40
4.0
 40
4.0
 40
4.0
 40
4.0
 10
3.433758638573295
 20
-1.19741114200743
 30
0.0
 10
3.433758638573295
 20
-1.214266522167488
 30
0.0
 10
3.420072727761408
 20
-1.227978245545854
 30
0.0
 10
3.403191535807057
 20
-1.227978245545854
 30
0.0
 10
3.386322570693816
 20
-1.227978245545854
 30
0.0
 10
3.372624433040831
 20
-1.214266522167488
 30
0.0
 10
3.372624433040831
 20
-1.19741114200743
 30
0.0
 10
3.372624433040831
 20
-1.180555761847409
 30
0.0
 10
3.386322570693816
 20
-1.166844038469031
 30
0.0
 10
3.403191535807057
 20
-1.166844038469031
 30
0.0
 10
3.420072727761408
 20
-1.166844038469031
 30
0.0
 10
3.433758638573295
 20
-1.180555761847409
 30
0.0
 10
3.433758638573295
 20
-1.19741114200743
 30
0.0
  0
SPLINE
  5
AA
330
1F
100
AcDbEntity
  8
LAYER_1
 62
   240
100
AcDbSpline
210
0.0
220
0.0
230
1.0
 70
    11
 71
     3
 72
    17
 73
    13
 74
     0
 42
0.0000000001
 43
0.0000000001
 12
1.0
 22
0.0
 32
0.0
 13
1.0
 23
0.0
 33
0.0
 40
0.0
 40
0.0
 40
0.0
 40
0.0
 40
1.0
 40
1.0
 40
1.0
 40
2.0
 40
2.0
 40
2.0
 40
3.0
 40
3.0
 40
3.0
 40
4.0
 40
4.0
 40
4.0
 40
4.0
 10
2.330616382563903
 20
-2.663713060982609
 30
0.0
 10
2.330616382563903
 20
-2.680568441142655
 30
0.0
 10
2.316931830289958
 20
-2.694280164521021
 30
0.0
 10
2.30004927979769
 20
-2.694280164521021
 30
0.0
 10
2.283180314684462
 20
-2.694280164521021
 30
0.0
 10
2.269482177031477
 20
-2.680568441142655
 30
0.0
 10
2.269482177031477
 20
-2.663713060982609
 30
0.0
 10
2.269482177031477
 20
-2.646857680822563
 30
0.0
 10
2.283180314684462
 20
-2.633145957444198
 30
0.0
 10
2.30004927979769
 20
-2.633145957444198
 30
0.0
 10
2.316931830289958
 20
-2.633145957444198
 30
0.0
 10
2.330616382563903
 20
-2.646857680822563
 30
0.0
 10
2.330616382563903
 20
-2.663713060982609
 30
0.0
  0
SPLINE
  5
AB
330
1F
100
AcDbEntity
  8
LAYER_1
 62
   240
100
AcDbSpline
210
0.0
220
0.0
230
1.0
 70
    11
 71
     3
 72
    17
 73
    13
 74
     0
 42
0.0000000001
 43
0.0000000001
 12
1.0
 22
0.0
 32
0.0
 13
1.0
 23
0.0
 33
0.0
 40
0.0
 40
0.0
 40
0.0
 40
0.0
 40
1.0
 40
1.0
 40
1.0
 40
2.0
 40
2.0
 40
2.0
 40
3.0
 40
3.0
 40
3.0
 40
4.0
 40
4.0
 40
4.0
 40
4.0
 10
2.690826425943884
 20
-2.663713060982609
 30
0.0
 10
2.690826425943884
 20
-2.680568441142655
 30
0.0
 10
2.677141807354246
 20
-2.694280164521021
 30
0.0
 10
2.660259322405484
 20
-2.694280164521021
 30
0.0
 10
2.643390291748763
 20
-2.694280164521021
 30
0.0
 10
2.629692218867073
 20
-2.680568441142655
 30
0.0
 10
2.629692218867073
 20
-2.663713060982609
 30
0.0
 10
2.629692218867073
 20
-2.646857680822563
 30
0.0
 10
2.643390291748763
 20
-2.633145957444198
 30
0.0
 10
2.660259322405484
 20
-2.633145957444198
 30
0.0
 10
2.677141807354246
 20
-2.633145957444198
 30
0.0
 10
2.690826425943884
 20
-2.646857680822563
 30
0.0
 10
2.690826425943884
 20
-2.663713060982609
 30
0.0
  0
SPLINE
  5
AC
330
1F
100
AcDbEntity
  8
LAYER_1
 62
   240
100
AcDbSpline
210
0.0
220
0.0
230
1.0
 70
    11
 71
     3
 72
    17
 73
    13
 74
     0
 42
0.0000000001
 43
0.0000000001
 12
1.0
 22
0.0
 32
0.0
 13
1.0
 23
0.0
 33
0.0
 40
0.0
 40
0.0
 40
0.0
 40
0.0
 40
1.0
 40
1.0
 40
1.0
 40
2.0
 40
2.0
 40
2.0
 40
3.0
 40
3.0
 40
3.0
 40
4.0
 40
4.0
 40
4.0
 40
4.0
 10
3.070834748314269
 20
-2.663713060982609
 30
0.0
 10
3.070834748314269
 20
-2.680568441142655
 30
0.0
 10
3.057150196040324
 20
-2.694280164521021
 30
0.0
 10
3.040267645548043
 20
-2.694280164521021
 30
0.0
 10
3.023398680434803
 20
-2.694280164521021
 30
0.0
 10
3.00970054278183
 20
-2.680568441142655
 30
0.0
 10
3.00970054278183
 20
-2.663713060982609
 30
0.0
 10
3.00970054278183
 20
-2.646857680822563
 30
0.0
 10
3.023398680434803
 20
-2.633145957444198
 30
0.0
 10
3.040267645548043
 20
-2.633145957444198
 30
0.0
 10
3.057150196040324
 20
-2.633145957444198
 30
0.0
 10
3.070834748314269
 20
-2.646857680822563
 30
0.0
 10
3.070834748314269
 20
-2.663713060982609
 30
0.0
  0
SPLINE
  5
AD
330
1F
100
AcDbEntity
  8
LAYER_1
 62
   240
100
AcDbSpline
210
0.0
220
0.0
230
1.0
 70
    11
 71
     3
 72
    17
 73
    13
 74
     0
 42
0.0000000001
 43
0.0000000001
 12
1.0
 22
0.0
 32
0.0
 13
1.0
 23
0.0
 33
0.0
 40
0.0
 40
0.0
 40
0.0
 40
0.0
 40
1.0
 40
1.0
 40
1.0
 40
2.0
 40
2.0
 40
2.0
 40
3.0
 40
3.0
 40
3.0
 40
4.0
 40
4.0
 40
4.0
 40
4.0
 10
3.444916312007586
 20
-2.663713060982609
 30
0.0
 10
3.444916312007586
 20
-2.680568441142655
 30
0.0
 10
3.431230401195737
 20
-2.694280164521021
 30
0.0
 10
3.41434920924136
 20
-2.694280164521021
 30
0.0
 10
3.397480244128107
 20
-2.694280164521021
 30
0.0
 10
3.383782106475147
 20
-2.680568441142655
 30
0.0
 10
3.383782106475147
 20
-2.663713060982609
 30
0.0
 10
3.383782106475147
 20
-2.646857680822563
 30
0.0
 10
3.397480244128107
 20
-2.633145957444198
 30
0.0
 10
3.41434920924136
 20
-2.633145957444198
 30
0.0
 10
3.431230401195737
 20
-2.633145957444198
 30
0.0
 10
3.444916312007586
 20
-2.646857680822563
 30
0.0
 10
3.444916312007586
 20
-2.663713060982609
 30
0.0
  0
SPLINE
  5
AE
330
1F
100
AcDbEntity
  8
LAYER_1
 62
   240
100
AcDbSpline
210
0.0
220
0.0
230
1.0
 70
    11
 71
     3
 72
    17
 73
    13
 74
     0
 42
0.0000000001
 43
0.0000000001
 12
1.0
 22
0.0
 32
0.0
 13
1.0
 23
0.0
 33
0.0
 40
0.0
 40
0.0
 40
0.0
 40
0.0
 40
1.0
 40
1.0
 40
1.0
 40
2.0
 40
2.0
 40
2.0
 40
3.0
 40
3.0
 40
3.0
 40
4.0
 40
4.0
 40
4.0
 40
4.0
 10
2.314483744992837
 20
-3.32424914891654
 30
0.0
 10
2.314483744992837
 20
-3.341104529076587
 30
0.0
 10
2.300799192718892
 20
-3.354816252454953
 30
0.0
 10
2.283916642226624
 20
-3.354816252454953
 30
0.0
 10
2.267047731952958
 20
-3.354816252454953
 30
0.0
 10
2.253349539460423
 20
-3.341104529076587
 30
0.0
 10
2.253349539460423
 20
-3.32424914891654
 30
0.0
 10
2.253349539460423
 20
-3.307393768756494
 30
0.0
 10
2.267047731952958
 20
-3.293682045378141
 30
0.0
 10
2.283916642226624
 20
-3.293682045378141
 30
0.0
 10
2.300799192718892
 20
-3.293682045378141
 30
0.0
 10
2.314483744992837
 20
-3.307393768756494
 30
0.0
 10
2.314483744992837
 20
-3.32424914891654
 30
0.0
  0
SPLINE
  5
AF
330
1F
100
AcDbEntity
  8
LAYER_1
 62
   240
100
AcDbSpline
210
0.0
220
0.0
230
1.0
 70
    11
 71
     3
 72
    17
 73
    13
 74
     0
 42
0.0000000001
 43
0.0000000001
 12
1.0
 22
0.0
 32
0.0
 13
1.0
 23
0.0
 33
0.0
 40
0.0
 40
0.0
 40
0.0
 40
0.0
 40
1.0
 40
1.0
 40
1.0
 40
2.0
 40
2.0
 40
2.0
 40
3.0
 40
3.0
 40
3.0
 40
4.0
 40
4.0
 40
4.0
 40
4.0
 10
2.686348618707446
 20
-3.32424914891654
 30
0.0
 10
2.686348618707446
 20
-3.341104529076587
 30
0.0
 10
2.672664066433476
 20
-3.354816252454953
 30
0.0
 10
2.655781515941208
 20
-3.354816252454953
 30
0.0
 10
2.638912550827968
 20
-3.354816252454953
 30
0.0
 10
2.625214413175008
 20
-3.341104529076587
 30
0.0
 10
2.625214413175008
 20
-3.32424914891654
 30
0.0
 10
2.625214413175008
 20
-3.307393768756494
 30
0.0
 10
2.638912550827968
 20
-3.293682045378141
 30
0.0
 10
2.655781515941208
 20
-3.293682045378141
 30
0.0
 10
2.672664066433476
 20
-3.293682045378141
 30
0.0
 10
2.686348618707446
 20
-3.307393768756494
 30
0.0
 10
2.686348618707446
 20
-3.32424914891654
 30
0.0
  0
SPLINE
  5
B0
330
1F
100
AcDbEntity
  8
LAYER_1
 62
   240
100
AcDbSpline
210
0.0
220
0.0
230
1.0
 70
    11
 71
     3
 72
    17
 73
    13
 74
     0
 42
0.0000000001
 43
0.0000000001
 12
1.0
 22
0.0
 32
0.0
 13
1.0
 23
0.0
 33
0.0
 40
0.0
 40
0.0
 40
0.0
 40
0.0
 40
1.0
 40
1.0
 40
1.0
 40
2.0
 40
2.0
 40
2.0
 40
3.0
 40
3.0
 40
3.0
 40
4.0
 40
4.0
 40
4.0
 40
4.0
 10
3.07136593663347
 20
-3.32424914891654
 30
0.0
 10
3.07136593663347
 20
-3.341104529076587
 30
0.0
 10
3.057680025821595
 20
-3.354816252454953
 30
0.0
 10
3.040798833867244
 20
-3.354816252454953
 30
0.0
 10
3.023929868753991
 20
-3.354816252454953
 30
0.0
 10
3.010231731101031
 20
-3.341104529076587
 30
0.0
 10
3.010231731101031
 20
-3.32424914891654
 30
0.0
 10
3.010231731101031
 20
-3.307393768756494
 30
0.0
 10
3.023929868753991
 20
-3.293682045378141
 30
0.0
 10
3.040798833867244
 20
-3.293682045378141
 30
0.0
 10
3.057680025821595
 20
-3.293682045378141
 30
0.0
 10
3.07136593663347
 20
-3.307393768756494
 30
0.0
 10
3.07136593663347
 20
-3.32424914891654
 30
0.0
  0
SPLINE
  5
B1
330
1F
100
AcDbEntity
  8
LAYER_1
 62
   240
100
AcDbSpline
210
0.0
220
0.0
230
1.0
 70
    11
 71
     3
 72
    17
 73
    13
 74
     0
 42
0.0000000001
 43
0.0000000001
 12
1.0
 22
0.0
 32
0.0
 13
1.0
 23
0.0
 33
0.0
 40
0.0
 40
0.0
 40
0.0
 40
0.0
 40
1.0
 40
1.0
 40
1.0
 40
2.0
 40
2.0
 40
2.0
 40
3.0
 40
3.0
 40
3.0
 40
4.0
 40
4.0
 40
4.0
 40
4.0
 10
3.456578001347376
 20
-3.32424914891654
 30
0.0
 10
3.456578001347376
 20
-3.341104529076587
 30
0.0
 10
3.442892090535515
 20
-3.354816252454953
 30
0.0
 10
3.426010898581163
 20
-3.354816252454953
 30
0.0
 10
3.409141933467898
 20
-3.354816252454953
 30
0.0
 10
3.395443795814925
 20
-3.341104529076587
 30
0.0
 10
3.395443795814925
 20
-3.32424914891654
 30
0.0
 10
3.395443795814925
 20
-3.307393768756494
 30
0.0
 10
3.409141933467898
 20
-3.293682045378141
 30
0.0
 10
3.426010898581163
 20
-3.293682045378141
 30
0.0
 10
3.442892090535515
 20
-3.293682045378141
 30
0.0
 10
3.456578001347376
 20
-3.307393768756494
 30
0.0
 10
3.456578001347376
 20
-3.32424914891654
 30
0.0
  0
SPLINE
  5
B2
330
1F
100
AcDbEntity
  8
LAYER_1
 62
   240
100
AcDbSpline
210
0.0
220
0.0
230
1.0
 70
    11
 71
     3
 72
    17
 73
    13
 74
     0
 42
0.0000000001
 43
0.0000000001
 12
1.0
 22
0.0
 32
0.0
 13
1.0
 23
0.0
 33
0.0
 40
0.0
 40
0.0
 40
0.0
 40
0.0
 40
1.0
 40
1.0
 40
1.0
 40
2.0
 40
2.0
 40
2.0
 40
3.0
 40
3.0
 40
3.0
 40
4.0
 40
4.0
 40
4.0
 40
4.0
 10
2.30228543318228
 20
-3.934191925611609
 30
0.0
 10
2.30228543318228
 20
-3.951040513081984
 30
0.0
 10
2.288599522370431
 20
-3.964759029150021
 30
0.0
 10
2.271718330416054
 20
-3.964759029150021
 30
0.0
 10
2.254849365302827
 20
-3.964759029150021
 30
0.0
 10
2.241151227649842
 20
-3.951040513081984
 30
0.0
 10
2.241151227649842
 20
-3.934191925611609
 30
0.0
 10
2.241151227649842
 20
-3.917343338141247
 30
0.0
 10
2.254849365302827
 20
-3.90362482207321
 30
0.0
 10
2.271718330416054
 20
-3.90362482207321
 30
0.0
 10
2.288599522370431
 20
-3.90362482207321
 30
0.0
 10
2.30228543318228
 20
-3.917343338141247
 30
0.0
 10
2.30228543318228
 20
-3.934191925611609
 30
0.0
  0
SPLINE
  5
B3
330
1F
100
AcDbEntity
  8
LAYER_1
 62
   240
100
AcDbSpline
210
0.0
220
0.0
230
1.0
 70
    11
 71
     3
 72
    17
 73
    13
 74
     0
 42
0.0000000001
 43
0.0000000001
 12
1.0
 22
0.0
 32
0.0
 13
1.0
 23
0.0
 33
0.0
 40
0.0
 40
0.0
 40
0.0
 40
0.0
 40
1.0
 40
1.0
 40
1.0
 40
2.0
 40
2.0
 40
2.0
 40
3.0
 40
3.0
 40
3.0
 40
4.0
 40
4.0
 40
4.0
 40
4.0
 10
2.682195568344936
 20
-3.934191925611609
 30
0.0
 10
2.682195568344936
 20
-3.951040513081984
 30
0.0
 10
2.668511016070978
 20
-3.964759029150021
 30
0.0
 10
2.65162846557871
 20
-3.964759029150021
 30
0.0
 10
2.634759565364789
 20
-3.964759029150021
 30
0.0
 10
2.621061362812497
 20
-3.951040513081984
 30
0.0
 10
2.621061362812497
 20
-3.934191925611609
 30
0.0
 10
2.621061362812497
 20
-3.917343338141247
 30
0.0
 10
2.634759565364789
 20
-3.90362482207321
 30
0.0
 10
2.65162846557871
 20
-3.90362482207321
 30
0.0
 10
2.668511016070978
 20
-3.90362482207321
 30
0.0
 10
2.682195568344936
 20
-3.917343338141247
 30
0.0
 10
2.682195568344936
 20
-3.934191925611609
 30
0.0
  0
SPLINE
  5
B4
330
1F
100
AcDbEntity
  8
LAYER_1
 62
   240
100
AcDbSpline
210
0.0
220
0.0
230
1.0
 70
    11
 71
     3
 72
    17
 73
    13
 74
     0
 42
0.0000000001
 43
0.0000000001
 12
1.0
 22
0.0
 32
0.0
 13
1.0
 23
0.0
 33
0.0
 40
0.0
 40
0.0
 40
0.0
 40
0.0
 40
1.0
 40
1.0
 40
1.0
 40
2.0
 40
2.0
 40
2.0
 40
3.0
 40
3.0
 40
3.0
 40
4.0
 40
4.0
 40
4.0
 40
4.0
 10
3.073163282276103
 20
-3.931962564860201
 30
0.0
 10
3.073163282276103
 20
-3.948812510868505
 30
0.0
 10
3.059478730002158
 20
-3.962529668398613
 30
0.0
 10
3.04259617950989
 20
-3.962529668398613
 30
0.0
 10
3.025727214396637
 20
-3.962529668398613
 30
0.0
 10
3.012029076743665
 20
-3.948812510868505
 30
0.0
 10
3.012029076743665
 20
-3.931962564860201
 30
0.0
 10
3.012029076743665
 20
-3.91511397738984
 30
0.0
 10
3.025727214396637
 20
-3.901395461321802
 30
0.0
 10
3.04259617950989
 20
-3.901395461321802
 30
0.0
 10
3.059478730002158
 20
-3.901395461321802
 30
0.0
 10
3.073163282276103
 20
-3.91511397738984
 30
0.0
 10
3.073163282276103
 20
-3.931962564860201
 30
0.0
  0
SPLINE
  5
B5
330
1F
100
AcDbEntity
  8
LAYER_1
 62
   240
100
AcDbSpline
210
0.0
220
0.0
230
1.0
 70
    11
 71
     3
 72
    17
 73
    13
 74
     0
 42
0.0000000001
 43
0.0000000001
 12
1.0
 22
0.0
 32
0.0
 13
1.0
 23
0.0
 33
0.0
 40
0.0
 40
0.0
 40
0.0
 40
0.0
 40
1.0
 40
1.0
 40
1.0
 40
2.0
 40
2.0
 40
2.0
 40
3.0
 40
3.0
 40
3.0
 40
4.0
 40
4.0
 40
4.0
 40
4.0
 10
3.466726279465762
 20
-3.934191925611609
 30
0.0
 10
3.466726279465762
 20
-3.951040513081984
 30
0.0
 10
3.453041727191791
 20
-3.964759029150021
 30
0.0
 10
3.436159176699536
 20
-3.964759029150021
 30
0.0
 10
3.419290211586296
 20
-3.964759029150021
 30
0.0
 10
3.405592073933311
 20
-3.951040513081984
 30
0.0
 10
3.405592073933311
 20
-3.934191925611609
 30
0.0
 10
3.405592073933311
 20
-3.917343338141247
 30
0.0
 10
3.419290211586296
 20
-3.90362482207321
 30
0.0
 10
3.436159176699536
 20
-3.90362482207321
 30
0.0
 10
3.453041727191791
 20
-3.90362482207321
 30
0.0
 10
3.466726279465762
 20
-3.917343338141247
 30
0.0
 10
3.466726279465762
 20
-3.934191925611609
 30
0.0
  0
SPLINE
  5
B6
330
1F
100
AcDbEntity
  8
LAYER_1
 62
   240
100
AcDbSpline
210
0.0
220
0.0
230
1.0
 70
    11
 71
     3
 72
    17
 73
    13
 74
     0
 42
0.0000000001
 43
0.0000000001
 12
1.0
 22
0.0
 32
0.0
 13
1.0
 23
0.0
 33
0.0
 40
0.0
 40
0.0
 40
0.0
 40
0.0
 40
1.0
 40
1.0
 40
1.0
 40
2.0
 40
2.0
 40
2.0
 40
3.0
 40
3.0
 40
3.0
 40
4.0
 40
4.0
 40
4.0
 40
4.0
 10
2.288951383686708
 20
-4.504870238908173
 30
0.0
 10
2.288951383686708
 20
-4.521720184916464
 30
0.0
 10
2.27526688645993
 20
-4.535437342446571
 30
0.0
 10
2.258384280920482
 20
-4.535437342446571
 30
0.0
 10
2.241515315807242
 20
-4.535437342446571
 30
0.0
 10
2.227817178154257
 20
-4.521720184916464
 30
0.0
 10
2.227817178154257
 20
-4.504870238908173
 30
0.0
 10
2.227817178154257
 20
-4.488021651437785
 30
0.0
 10
2.241515315807242
 20
-4.474303135369761
 30
0.0
 10
2.258384280920482
 20
-4.474303135369761
 30
0.0
 10
2.27526688645993
 20
-4.474303135369761
 30
0.0
 10
2.288951383686708
 20
-4.488021651437785
 30
0.0
 10
2.288951383686708
 20
-4.504870238908173
 30
0.0
  0
SPLINE
  5
B7
330
1F
100
AcDbEntity
  8
LAYER_1
 62
   240
100
AcDbSpline
210
0.0
220
0.0
230
1.0
 70
    11
 71
     3
 72
    17
 73
    13
 74
     0
 42
0.0000000001
 43
0.0000000001
 12
1.0
 22
0.0
 32
0.0
 13
1.0
 23
0.0
 33
0.0
 40
0.0
 40
0.0
 40
0.0
 40
0.0
 40
1.0
 40
1.0
 40
1.0
 40
2.0
 40
2.0
 40
2.0
 40
3.0
 40
3.0
 40
3.0
 40
4.0
 40
4.0
 40
4.0
 40
4.0
 10
2.679496219565661
 20
-4.504870238908173
 30
0.0
 10
2.679496219565661
 20
-4.521720184916464
 30
0.0
 10
2.665811601262223
 20
-4.535437342446571
 30
0.0
 10
2.648929116027249
 20
-4.535437342446571
 30
0.0
 10
2.632060085656753
 20
-4.535437342446571
 30
0.0
 10
2.618362012488837
 20
-4.521720184916464
 30
0.0
 10
2.618362012488837
 20
-4.504870238908173
 30
0.0
 10
2.618362012488837
 20
-4.488021651437785
 30
0.0
 10
2.632060085656753
 20
-4.474303135369761
 30
0.0
 10
2.648929116027249
 20
-4.474303135369761
 30
0.0
 10
2.665811601262223
 20
-4.474303135369761
 30
0.0
 10
2.679496219565661
 20
-4.488021651437785
 30
0.0
 10
2.679496219565661
 20
-4.504870238908173
 30
0.0
  0
SPLINE
  5
B8
330
1F
100
AcDbEntity
  8
LAYER_1
 62
   240
100
AcDbSpline
210
0.0
220
0.0
230
1.0
 70
    11
 71
     3
 72
    17
 73
    13
 74
     0
 42
0.0000000001
 43
0.0000000001
 12
1.0
 22
0.0
 32
0.0
 13
1.0
 23
0.0
 33
0.0
 40
0.0
 40
0.0
 40
0.0
 40
0.0
 40
1.0
 40
1.0
 40
1.0
 40
2.0
 40
2.0
 40
2.0
 40
3.0
 40
3.0
 40
3.0
 40
4.0
 40
4.0
 40
4.0
 40
4.0
 10
3.077282369191089
 20
-4.50309327128913
 30
0.0
 10
3.077282369191089
 20
-4.519941858759479
 30
0.0
 10
3.063597816917131
 20
-4.533660374827528
 30
0.0
 10
3.046715266424864
 20
-4.533660374827528
 30
0.0
 10
3.029846301311623
 20
-4.533660374827528
 30
0.0
 10
3.016148163658663
 20
-4.519941858759479
 30
0.0
 10
3.016148163658663
 20
-4.50309327128913
 30
0.0
 10
3.016148163658663
 20
-4.486243325280813
 30
0.0
 10
3.029846301311623
 20
-4.472526167750718
 30
0.0
 10
3.046715266424864
 20
-4.472526167750718
 30
0.0
 10
3.063597816917131
 20
-4.472526167750718
 30
0.0
 10
3.077282369191089
 20
-4.486243325280813
 30
0.0
 10
3.077282369191089
 20
-4.50309327128913
 30
0.0
  0
SPLINE
  5
B9
330
1F
100
AcDbEntity
  8
LAYER_1
 62
   240
100
AcDbSpline
210
0.0
220
0.0
230
1.0
 70
    11
 71
     3
 72
    17
 73
    13
 74
     0
 42
0.0000000001
 43
0.0000000001
 12
1.0
 22
0.0
 32
0.0
 13
1.0
 23
0.0
 33
0.0
 40
0.0
 40
0.0
 40
0.0
 40
0.0
 40
1.0
 40
1.0
 40
1.0
 40
2.0
 40
2.0
 40
2.0
 40
3.0
 40
3.0
 40
3.0
 40
4.0
 40
4.0
 40
4.0
 40
4.0
 10
3.475602966109073
 20
-4.504870238908173
 30
0.0
 10
3.475602966109073
 20
-4.521720184916464
 30
0.0
 10
3.461917055297224
 20
-4.535437342446571
 30
0.0
 10
3.44503586334286
 20
-4.535437342446571
 30
0.0
 10
3.428166898229594
 20
-4.535437342446571
 30
0.0
 10
3.414468760576622
 20
-4.521720184916464
 30
0.0
 10
3.414468760576622
 20
-4.504870238908173
 30
0.0
 10
3.414468760576622
 20
-4.488021651437785
 30
0.0
 10
3.428166898229594
 20
-4.474303135369761
 30
0.0
 10
3.44503586334286
 20
-4.474303135369761
 30
0.0
 10
3.461917055297224
 20
-4.474303135369761
 30
0.0
 10
3.475602966109073
 20
-4.488021651437785
 30
0.0
 10
3.475602966109073
 20
-4.504870238908173
 30
0.0
  0
SPLINE
  5
BA
330
1F
100
AcDbEntity
  8
LAYER_1
 62
   240
100
AcDbSpline
210
0.0
220
0.0
230
1.0
 70
    11
 71
     3
 72
    17
 73
    13
 74
     0
 42
0.0000000001
 43
0.0000000001
 12
1.0
 22
0.0
 32
0.0
 13
1.0
 23
0.0
 33
0.0
 40
0.0
 40
0.0
 40
0.0
 40
0.0
 40
1.0
 40
1.0
 40
1.0
 40
2.0
 40
2.0
 40
2.0
 40
3.0
 40
3.0
 40
3.0
 40
4.0
 40
4.0
 40
4.0
 40
4.0
 10
2.276700088898009
 20
-5.070587171665933
 30
0.0
 10
2.276700088898009
 20
-5.087437117674224
 30
0.0
 10
2.263014178086147
 20
-5.101154275204345
 30
0.0
 10
2.246132986131784
 20
-5.101154275204345
 30
0.0
 10
2.229264021018518
 20
-5.101154275204345
 30
0.0
 10
2.215565883365571
 20
-5.087437117674224
 30
0.0
 10
2.215565883365571
 20
-5.070587171665933
 30
0.0
 10
2.215565883365571
 20
-5.053738584195558
 30
0.0
 10
2.229264021018518
 20
-5.040020068127521
 30
0.0
 10
2.246132986131784
 20
-5.040020068127521
 30
0.0
 10
2.263014178086147
 20
-5.040020068127521
 30
0.0
 10
2.276700088898009
 20
-5.053738584195558
 30
0.0
 10
2.276700088898009
 20
-5.070587171665933
 30
0.0
  0
SPLINE
  5
BB
330
1F
100
AcDbEntity
  8
LAYER_1
 62
   240
100
AcDbSpline
210
0.0
220
0.0
230
1.0
 70
    11
 71
     3
 72
    17
 73
    13
 74
     0
 42
0.0000000001
 43
0.0000000001
 12
1.0
 22
0.0
 32
0.0
 13
1.0
 23
0.0
 33
0.0
 40
0.0
 40
0.0
 40
0.0
 40
0.0
 40
1.0
 40
1.0
 40
1.0
 40
2.0
 40
2.0
 40
2.0
 40
3.0
 40
3.0
 40
3.0
 40
4.0
 40
4.0
 40
4.0
 40
4.0
 10
2.676730170370345
 20
-5.070587171665933
 30
0.0
 10
2.676730170370345
 20
-5.087437117674224
 30
0.0
 10
2.663045618096362
 20
-5.101154275204345
 30
0.0
 10
2.646163067604119
 20
-5.101154275204345
 30
0.0
 10
2.629294102490879
 20
-5.101154275204345
 30
0.0
 10
2.615595964837894
 20
-5.087437117674224
 30
0.0
 10
2.615595964837894
 20
-5.070587171665933
 30
0.0
 10
2.615595964837894
 20
-5.053738584195558
 30
0.0
 10
2.629294102490879
 20
-5.040020068127521
 30
0.0
 10
2.646163067604119
 20
-5.040020068127521
 30
0.0
 10
2.663045618096362
 20
-5.040020068127521
 30
0.0
 10
2.676730170370345
 20
-5.053738584195558
 30
0.0
 10
2.676730170370345
 20
-5.070587171665933
 30
0.0
  0
SPLINE
  5
BC
330
1F
100
AcDbEntity
  8
LAYER_1
 62
   240
100
AcDbSpline
210
0.0
220
0.0
230
1.0
 70
    11
 71
     3
 72
    17
 73
    13
 74
     0
 42
0.0000000001
 43
0.0000000001
 12
1.0
 22
0.0
 32
0.0
 13
1.0
 23
0.0
 33
0.0
 40
0.0
 40
0.0
 40
0.0
 40
0.0
 40
1.0
 40
1.0
 40
1.0
 40
2.0
 40
2.0
 40
2.0
 40
3.0
 40
3.0
 40
3.0
 40
4.0
 40
4.0
 40
4.0
 40
4.0
 10
3.078596075341099
 20
-5.068359169452454
 30
0.0
 10
3.078596075341099
 20
-5.085207756922816
 30
0.0
 10
3.064911523067129
 20
-5.098926272990866
 30
0.0
 10
3.048028972574861
 20
-5.098926272990866
 30
0.0
 10
3.031160007461621
 20
-5.098926272990866
 30
0.0
 10
3.017461869808648
 20
-5.085207756922816
 30
0.0
 10
3.017461869808648
 20
-5.068359169452454
 30
0.0
 10
3.017461869808648
 20
-5.051509223444175
 30
0.0
 10
3.031160007461621
 20
-5.037792065914042
 30
0.0
 10
3.048028972574861
 20
-5.037792065914042
 30
0.0
 10
3.064911523067129
 20
-5.037792065914042
 30
0.0
 10
3.078596075341099
 20
-5.051509223444175
 30
0.0
 10
3.078596075341099
 20
-5.068359169452454
 30
0.0
  0
SPLINE
  5
BD
330
1F
100
AcDbEntity
  8
LAYER_1
 62
   240
100
AcDbSpline
210
0.0
220
0.0
230
1.0
 70
    11
 71
     3
 72
    17
 73
    13
 74
     0
 42
0.0000000001
 43
0.0000000001
 12
1.0
 22
0.0
 32
0.0
 13
1.0
 23
0.0
 33
0.0
 40
0.0
 40
0.0
 40
0.0
 40
0.0
 40
1.0
 40
1.0
 40
1.0
 40
2.0
 40
2.0
 40
2.0
 40
3.0
 40
3.0
 40
3.0
 40
4.0
 40
4.0
 40
4.0
 40
4.0
 10
3.481480001067577
 20
-5.070587171665933
 30
0.0
 10
3.481480001067577
 20
-5.087437117674224
 30
0.0
 10
3.467794090255729
 20
-5.101154275204345
 30
0.0
 10
3.450912898301365
 20
-5.101154275204345
 30
0.0
 10
3.434043933188112
 20
-5.101154275204345
 30
0.0
 10
3.420345795535139
 20
-5.087437117674224
 30
0.0
 10
3.420345795535139
 20
-5.070587171665933
 30
0.0
 10
3.420345795535139
 20
-5.053738584195558
 30
0.0
 10
3.434043933188112
 20
-5.040020068127521
 30
0.0
 10
3.450912898301365
 20
-5.040020068127521
 30
0.0
 10
3.467794090255729
 20
-5.040020068127521
 30
0.0
 10
3.481480001067577
 20
-5.053738584195558
 30
0.0
 10
3.481480001067577
 20
-5.070587171665933
 30
0.0
  0
SPLINE
  5
BE
330
1F
100
AcDbEntity
  8
LAYER_1
 62
   240
100
AcDbSpline
210
0.0
220
0.0
230
1.0
 70
    11
 71
     3
 72
    17
 73
    13
 74
     0
 42
0.0000000001
 43
0.0000000001
 12
1.0
 22
0.0
 32
0.0
 13
1.0
 23
0.0
 33
0.0
 40
0.0
 40
0.0
 40
0.0
 40
0.0
 40
1.0
 40
1.0
 40
1.0
 40
2.0
 40
2.0
 40
2.0
 40
3.0
 40
3.0
 40
3.0
 40
4.0
 40
4.0
 40
4.0
 40
4.0
 10
2.265117194756461
 20
-5.578924896199346
 30
0.0
 10
2.265117194756461
 20
-5.59577348366972
 30
0.0
 10
2.251432642482491
 20
-5.609491999737744
 30
0.0
 10
2.234550091990248
 20
-5.609491999737744
 30
0.0
 10
2.217681126876995
 20
-5.609491999737744
 30
0.0
 10
2.20398298922401
 20
-5.59577348366972
 30
0.0
 10
2.20398298922401
 20
-5.578924896199346
 30
0.0
 10
2.20398298922401
 20
-5.562076308728958
 30
0.0
 10
2.217681126876995
 20
-5.548357792660921
 30
0.0
 10
2.234550091990248
 20
-5.548357792660921
 30
0.0
 10
2.251432642482491
 20
-5.548357792660921
 30
0.0
 10
2.265117194756461
 20
-5.562076308728958
 30
0.0
 10
2.265117194756461
 20
-5.578924896199346
 30
0.0
  0
SPLINE
  5
BF
330
1F
100
AcDbEntity
  8
LAYER_1
 62
   240
100
AcDbSpline
210
0.0
220
0.0
230
1.0
 70
    11
 71
     3
 72
    17
 73
    13
 74
     0
 42
0.0000000001
 43
0.0000000001
 12
1.0
 22
0.0
 32
0.0
 13
1.0
 23
0.0
 33
0.0
 40
0.0
 40
0.0
 40
0.0
 40
0.0
 40
1.0
 40
1.0
 40
1.0
 40
2.0
 40
2.0
 40
2.0
 40
3.0
 40
3.0
 40
3.0
 40
4.0
 40
4.0
 40
4.0
 40
4.0
 10
2.67286241296698
 20
-5.578924896199346
 30
0.0
 10
2.67286241296698
 20
-5.59577348366972
 30
0.0
 10
2.659177860693035
 20
-5.609491999737744
 30
0.0
 10
2.642295310200767
 20
-5.609491999737744
 30
0.0
 10
2.625426409751046
 20
-5.609491999737744
 30
0.0
 10
2.611728207434554
 20
-5.59577348366972
 30
0.0
 10
2.611728207434554
 20
-5.578924896199346
 30
0.0
 10
2.611728207434554
 20
-5.562076308728958
 30
0.0
 10
2.625426409751046
 20
-5.548357792660921
 30
0.0
 10
2.642295310200767
 20
-5.548357792660921
 30
0.0
 10
2.659177860693035
 20
-5.548357792660921
 30
0.0
 10
2.67286241296698
 20
-5.562076308728958
 30
0.0
 10
2.67286241296698
 20
-5.578924896199346
 30
0.0
  0
SPLINE
  5
C0
330
1F
100
AcDbEntity
  8
LAYER_1
 62
   240
100
AcDbSpline
210
0.0
220
0.0
230
1.0
 70
    11
 71
     3
 72
    17
 73
    13
 74
     0
 42
0.0000000001
 43
0.0000000001
 12
1.0
 22
0.0
 32
0.0
 13
1.0
 23
0.0
 33
0.0
 40
0.0
 40
0.0
 40
0.0
 40
0.0
 40
1.0
 40
1.0
 40
1.0
 40
2.0
 40
2.0
 40
2.0
 40
3.0
 40
3.0
 40
3.0
 40
4.0
 40
4.0
 40
4.0
 40
4.0
 10
3.080830870187785
 20
-5.576695535447938
 30
0.0
 10
3.080830870187785
 20
-5.593545481456241
 30
0.0
 10
3.067146317913815
 20
-5.607262638986362
 30
0.0
 10
3.050263767421547
 20
-5.607262638986362
 30
0.0
 10
3.033394802308306
 20
-5.607262638986362
 30
0.0
 10
3.019696664655334
 20
-5.593545481456241
 30
0.0
 10
3.019696664655334
 20
-5.576695535447938
 30
0.0
 10
3.019696664655334
 20
-5.559846947977576
 30
0.0
 10
3.033394802308306
 20
-5.546128431909513
 30
0.0
 10
3.050263767421547
 20
-5.546128431909513
 30
0.0
 10
3.067146317913815
 20
-5.546128431909513
 30
0.0
 10
3.080830870187785
 20
-5.559846947977576
 30
0.0
 10
3.080830870187785
 20
-5.576695535447938
 30
0.0
  0
SPLINE
  5
C1
330
1F
100
AcDbEntity
  8
LAYER_1
 62
   240
100
AcDbSpline
210
0.0
220
0.0
230
1.0
 70
    11
 71
     3
 72
    17
 73
    13
 74
     0
 42
0.0000000001
 43
0.0000000001
 12
1.0
 22
0.0
 32
0.0
 13
1.0
 23
0.0
 33
0.0
 40
0.0
 40
0.0
 40
0.0
 40
0.0
 40
1.0
 40
1.0
 40
1.0
 40
2.0
 40
2.0
 40
2.0
 40
3.0
 40
3.0
 40
3.0
 40
4.0
 40
4.0
 40
4.0
 40
4.0
 10
3.492159467505151
 20
-5.578924896199346
 30
0.0
 10
3.492159467505151
 20
-5.59577348366972
 30
0.0
 10
3.478474915231193
 20
-5.609491999737744
 30
0.0
 10
3.461592364738926
 20
-5.609491999737744
 30
0.0
 10
3.444723399625673
 20
-5.609491999737744
 30
0.0
 10
3.431025261972713
 20
-5.59577348366972
 30
0.0
 10
3.431025261972713
 20
-5.578924896199346
 30
0.0
 10
3.431025261972713
 20
-5.562076308728958
 30
0.0
 10
3.444723399625673
 20
-5.548357792660921
 30
0.0
 10
3.461592364738926
 20
-5.548357792660921
 30
0.0
 10
3.478474915231193
 20
-5.548357792660921
 30
0.0
 10
3.492159467505151
 20
-5.562076308728958
 30
0.0
 10
3.492159467505151
 20
-5.578924896199346
 30
0.0
  0
SPLINE
  5
C2
330
1F
100
AcDbEntity
  8
LAYER_1
 62
   240
100
AcDbSpline
210
0.0
220
0.0
230
1.0
 70
    11
 71
     3
 72
    17
 73
    13
 74
     0
 42
0.0000000001
 43
0.0000000001
 12
1.0
 22
0.0
 32
0.0
 13
1.0
 23
0.0
 33
0.0
 40
0.0
 40
0.0
 40
0.0
 40
0.0
 40
1.0
 40
1.0
 40
1.0
 40
2.0
 40
2.0
 40
2.0
 40
3.0
 40
3.0
 40
3.0
 40
4.0
 40
4.0
 40
4.0
 40
4.0
 10
2.254968916638088
 20
-6.059878571576127
 30
0.0
 10
2.254968916638088
 20
-6.076728517584443
 30
0.0
 10
2.241283005826226
 20
-6.090445675114526
 30
0.0
 10
2.22440181387185
 20
-6.090445675114526
 30
0.0
 10
2.207532848758597
 20
-6.090445675114526
 30
0.0
 10
2.19383471110565
 20
-6.076728517584443
 30
0.0
 10
2.19383471110565
 20
-6.059878571576127
 30
0.0
 10
2.19383471110565
 20
-6.043029984105766
 30
0.0
 10
2.207532848758597
 20
-6.029311468037728
 30
0.0
 10
2.22440181387185
 20
-6.029311468037728
 30
0.0
 10
2.241283005826226
 20
-6.029311468037728
 30
0.0
 10
2.254968916638088
 20
-6.043029984105766
 30
0.0
 10
2.254968916638088
 20
-6.059878571576127
 30
0.0
  0
SPLINE
  5
C3
330
1F
100
AcDbEntity
  8
LAYER_1
 62
   240
100
AcDbSpline
210
0.0
220
0.0
230
1.0
 70
    11
 71
     3
 72
    17
 73
    13
 74
     0
 42
0.0000000001
 43
0.0000000001
 12
1.0
 22
0.0
 32
0.0
 13
1.0
 23
0.0
 33
0.0
 40
0.0
 40
0.0
 40
0.0
 40
0.0
 40
1.0
 40
1.0
 40
1.0
 40
2.0
 40
2.0
 40
2.0
 40
3.0
 40
3.0
 40
3.0
 40
4.0
 40
4.0
 40
4.0
 40
4.0
 10
2.670023068754479
 20
-6.059878571576127
 30
0.0
 10
2.670023068754479
 20
-6.076728517584443
 30
0.0
 10
2.656338516480509
 20
-6.090445675114526
 30
0.0
 10
2.639455965988266
 20
-6.090445675114526
 30
0.0
 10
2.622587065466822
 20
-6.090445675114526
 30
0.0
 10
2.608888863222028
 20
-6.076728517584443
 30
0.0
 10
2.608888863222028
 20
-6.059878571576127
 30
0.0
 10
2.608888863222028
 20
-6.043029984105766
 30
0.0
 10
2.622587065466822
 20
-6.029311468037728
 30
0.0
 10
2.639455965988266
 20
-6.029311468037728
 30
0.0
 10
2.656338516480509
 20
-6.029311468037728
 30
0.0
 10
2.670023068754479
 20
-6.043029984105766
 30
0.0
 10
2.670023068754479
 20
-6.059878571576127
 30
0.0
  0
SPLINE
  5
C4
330
1F
100
AcDbEntity
  8
LAYER_1
 62
   240
100
AcDbSpline
210
0.0
220
0.0
230
1.0
 70
    11
 71
     3
 72
    17
 73
    13
 74
     0
 42
0.0000000001
 43
0.0000000001
 12
1.0
 22
0.0
 32
0.0
 13
1.0
 23
0.0
 33
0.0
 40
0.0
 40
0.0
 40
0.0
 40
0.0
 40
1.0
 40
1.0
 40
1.0
 40
2.0
 40
2.0
 40
2.0
 40
3.0
 40
3.0
 40
3.0
 40
4.0
 40
4.0
 40
4.0
 40
4.0
 10
3.082171747095799
 20
-6.057650569362661
 30
0.0
 10
3.082171747095799
 20
-6.074499156833036
 30
0.0
 10
3.068485836283925
 20
-6.088217672901085
 30
0.0
 10
3.051604644329573
 20
-6.088217672901085
 30
0.0
 10
3.034735679216308
 20
-6.088217672901085
 30
0.0
 10
3.021037541563348
 20
-6.074499156833036
 30
0.0
 10
3.021037541563348
 20
-6.057650569362661
 30
0.0
 10
3.021037541563348
 20
-6.040800623354357
 30
0.0
 10
3.034735679216308
 20
-6.027083465824262
 30
0.0
 10
3.051604644329573
 20
-6.027083465824262
 30
0.0
 10
3.068485836283925
 20
-6.027083465824262
 30
0.0
 10
3.082171747095799
 20
-6.040800623354357
 30
0.0
 10
3.082171747095799
 20
-6.057650569362661
 30
0.0
  0
SPLINE
  5
C5
330
1F
100
AcDbEntity
  8
LAYER_1
 62
   240
100
AcDbSpline
210
0.0
220
0.0
230
1.0
 70
    11
 71
     3
 72
    17
 73
    13
 74
     0
 42
0.0000000001
 43
0.0000000001
 12
1.0
 22
0.0
 32
0.0
 13
1.0
 23
0.0
 33
0.0
 40
0.0
 40
0.0
 40
0.0
 40
0.0
 40
1.0
 40
1.0
 40
1.0
 40
2.0
 40
2.0
 40
2.0
 40
3.0
 40
3.0
 40
3.0
 40
4.0
 40
4.0
 40
4.0
 40
4.0
 10
3.501128534725719
 20
-6.059878571576127
 30
0.0
 10
3.501128534725719
 20
-6.076728517584443
 30
0.0
 10
3.487442623913858
 20
-6.090445675114526
 30
0.0
 10
3.470561431959482
 20
-6.090445675114526
 30
0.0
 10
3.453692466846241
 20
-6.090445675114526
 30
0.0
 10
3.439994329193269
 20
-6.076728517584443
 30
0.0
 10
3.439994329193269
 20
-6.059878571576127
 30
0.0
 10
3.439994329193269
 20
-6.043029984105766
 30
0.0
 10
3.453692466846241
 20
-6.029311468037728
 30
0.0
 10
3.470561431959482
 20
-6.029311468037728
 30
0.0
 10
3.487442623913858
 20
-6.029311468037728
 30
0.0
 10
3.501128534725719
 20
-6.043029984105766
 30
0.0
 10
3.501128534725719
 20
-6.059878571576127
 30
0.0
  0
SPLINE
  5
C6
330
1F
100
AcDbEntity
  8
LAYER_1
 62
   240
100
AcDbSpline
210
0.0
220
0.0
230
1.0
 70
    11
 71
     3
 72
    17
 73
    13
 74
     0
 42
0.0000000001
 43
0.0000000001
 12
1.0
 22
0.0
 32
0.0
 13
1.0
 23
0.0
 33
0.0
 40
0.0
 40
0.0
 40
0.0
 40
0.0
 40
1.0
 40
1.0
 40
1.0
 40
2.0
 40
2.0
 40
2.0
 40
3.0
 40
3.0
 40
3.0
 40
4.0
 40
4.0
 40
4.0
 40
4.0
 10
2.244527194333121
 20
-6.527646277755442
 30
0.0
 10
2.244527194333121
 20
-6.544494865225803
 30
0.0
 10
2.230842695984127
 20
-6.55821338129384
 30
0.0
 10
2.213960091566908
 20
-6.55821338129384
 30
0.0
 10
2.19709112645368
 20
-6.55821338129384
 30
0.0
 10
2.183392988800708
 20
-6.544494865225803
 30
0.0
 10
2.183392988800708
 20
-6.527646277755442
 30
0.0
 10
2.183392988800708
 20
-6.510796331747137
 30
0.0
 10
2.19709112645368
 20
-6.497079174217017
 30
0.0
 10
2.213960091566908
 20
-6.497079174217017
 30
0.0
 10
2.230842695984127
 20
-6.497079174217017
 30
0.0
 10
2.244527194333121
 20
-6.510796331747137
 30
0.0
 10
2.244527194333121
 20
-6.527646277755442
 30
0.0
  0
SPLINE
  5
C7
330
1F
100
AcDbEntity
  8
LAYER_1
 62
   240
100
AcDbSpline
210
0.0
220
0.0
230
1.0
 70
    11
 71
     3
 72
    17
 73
    13
 74
     0
 42
0.0000000001
 43
0.0000000001
 12
1.0
 22
0.0
 32
0.0
 13
1.0
 23
0.0
 33
0.0
 40
0.0
 40
0.0
 40
0.0
 40
0.0
 40
1.0
 40
1.0
 40
1.0
 40
2.0
 40
2.0
 40
2.0
 40
3.0
 40
3.0
 40
3.0
 40
4.0
 40
4.0
 40
4.0
 40
4.0
 10
2.667111722033244
 20
-6.527646277755442
 30
0.0
 10
2.667111722033244
 20
-6.544494865225803
 30
0.0
 10
2.653427169759273
 20
-6.55821338129384
 30
0.0
 10
2.636544619267031
 20
-6.55821338129384
 30
0.0
 10
2.619675654153765
 20
-6.55821338129384
 30
0.0
 10
2.605977516500793
 20
-6.544494865225803
 30
0.0
 10
2.605977516500793
 20
-6.527646277755442
 30
0.0
 10
2.605977516500793
 20
-6.510796331747137
 30
0.0
 10
2.619675654153765
 20
-6.497079174217017
 30
0.0
 10
2.636544619267031
 20
-6.497079174217017
 30
0.0
 10
2.653427169759273
 20
-6.497079174217017
 30
0.0
 10
2.667111722033244
 20
-6.510796331747137
 30
0.0
 10
2.667111722033244
 20
-6.527646277755442
 30
0.0
  0
SPLINE
  5
C8
330
1F
100
AcDbEntity
  8
LAYER_1
 62
   240
100
AcDbSpline
210
0.0
220
0.0
230
1.0
 70
    11
 71
     3
 72
    17
 73
    13
 74
     0
 42
0.0000000001
 43
0.0000000001
 12
1.0
 22
0.0
 32
0.0
 13
1.0
 23
0.0
 33
0.0
 40
0.0
 40
0.0
 40
0.0
 40
0.0
 40
1.0
 40
1.0
 40
1.0
 40
2.0
 40
2.0
 40
2.0
 40
3.0
 40
3.0
 40
3.0
 40
4.0
 40
4.0
 40
4.0
 40
4.0
 10
3.085527335710581
 20
-6.525416917004033
 30
0.0
 10
3.085527335710581
 20
-6.542265504474395
 30
0.0
 10
3.071842859911903
 20
-6.555984020542446
 30
0.0
 10
3.054960232944356
 20
-6.555984020542446
 30
0.0
 10
3.03809126783109
 20
-6.555984020542446
 30
0.0
 10
3.02439313017813
 20
-6.542265504474395
 30
0.0
 10
3.02439313017813
 20
-6.525416917004033
 30
0.0
 10
3.02439313017813
 20
-6.508568329533672
 30
0.0
 10
3.03809126783109
 20
-6.494849813465635
 30
0.0
 10
3.054960232944356
 20
-6.494849813465635
 30
0.0
 10
3.071842859911903
 20
-6.494849813465635
 30
0.0
 10
3.085527335710581
 20
-6.508568329533672
 30
0.0
 10
3.085527335710581
 20
-6.525416917004033
 30
0.0
  0
SPLINE
  5
C9
330
1F
100
AcDbEntity
  8
LAYER_1
 62
   240
100
AcDbSpline
210
0.0
220
0.0
230
1.0
 70
    11
 71
     3
 72
    17
 73
    13
 74
     0
 42
0.0000000001
 43
0.0000000001
 12
1.0
 22
0.0
 32
0.0
 13
1.0
 23
0.0
 33
0.0
 40
0.0
 40
0.0
 40
0.0
 40
0.0
 40
1.0
 40
1.0
 40
1.0
 40
2.0
 40
2.0
 40
2.0
 40
3.0
 40
3.0
 40
3.0
 40
4.0
 40
4.0
 40
4.0
 40
4.0
 10
3.509619396605217
 20
-6.527646277755442
 30
0.0
 10
3.509619396605217
 20
-6.544494865225803
 30
0.0
 10
3.495933485793342
 20
-6.55821338129384
 30
0.0
 10
3.479052293839004
 20
-6.55821338129384
 30
0.0
 10
3.462183328725725
 20
-6.55821338129384
 30
0.0
 10
3.448485191072766
 20
-6.544494865225803
 30
0.0
 10
3.448485191072766
 20
-6.527646277755442
 30
0.0
 10
3.448485191072766
 20
-6.510796331747137
 30
0.0
 10
3.462183328725725
 20
-6.497079174217017
 30
0.0
 10
3.479052293839004
 20
-6.497079174217017
 30
0.0
 10
3.495933485793342
 20
-6.497079174217017
 30
0.0
 10
3.509619396605217
 20
-6.510796331747137
 30
0.0
 10
3.509619396605217
 20
-6.527646277755442
 30
0.0
  0
SPLINE
  5
CA
330
1F
100
AcDbEntity
  8
LAYER_1
 62
   240
100
AcDbSpline
210
0.0
220
0.0
230
1.0
 70
    11
 71
     3
 72
    17
 73
    13
 74
     0
 42
0.0000000001
 43
0.0000000001
 12
1.0
 22
0.0
 32
0.0
 13
1.0
 23
0.0
 33
0.0
 40
0.0
 40
0.0
 40
0.0
 40
0.0
 40
1.0
 40
1.0
 40
1.0
 40
2.0
 40
2.0
 40
2.0
 40
3.0
 40
3.0
 40
3.0
 40
4.0
 40
4.0
 40
4.0
 40
4.0
 10
2.234245779500485
 20
-6.970802710703538
 30
0.0
 10
2.234245779500485
 20
-6.987651298173924
 30
0.0
 10
2.220559868688636
 20
-7.001369814241949
 30
0.0
 10
2.203678676734246
 20
-7.001369814241949
 30
0.0
 10
2.186809711621019
 20
-7.001369814241949
 30
0.0
 10
2.173111573968046
 20
-6.987651298173924
 30
0.0
 10
2.173111573968046
 20
-6.970802710703538
 30
0.0
 10
2.173111573968046
 20
-6.953954123233175
 30
0.0
 10
2.186809711621019
 20
-6.940235607165138
 30
0.0
 10
2.203678676734246
 20
-6.940235607165138
 30
0.0
 10
2.220559868688636
 20
-6.940235607165138
 30
0.0
 10
2.234245779500485
 20
-6.953954123233175
 30
0.0
 10
2.234245779500485
 20
-6.970802710703538
 30
0.0
  0
SPLINE
  5
CB
330
1F
100
AcDbEntity
  8
LAYER_1
 62
   240
100
AcDbSpline
210
0.0
220
0.0
230
1.0
 70
    11
 71
     3
 72
    17
 73
    13
 74
     0
 42
0.0000000001
 43
0.0000000001
 12
1.0
 22
0.0
 32
0.0
 13
1.0
 23
0.0
 33
0.0
 40
0.0
 40
0.0
 40
0.0
 40
0.0
 40
1.0
 40
1.0
 40
1.0
 40
2.0
 40
2.0
 40
2.0
 40
3.0
 40
3.0
 40
3.0
 40
4.0
 40
4.0
 40
4.0
 40
4.0
 10
2.664856549118035
 20
-6.970802710703538
 30
0.0
 10
2.664856549118035
 20
-6.987651298173924
 30
0.0
 10
2.651170703620058
 20
-7.001369814241949
 30
0.0
 10
2.634289446351835
 20
-7.001369814241949
 30
0.0
 10
2.617420481238582
 20
-7.001369814241949
 30
0.0
 10
2.603722343585597
 20
-6.987651298173924
 30
0.0
 10
2.603722343585597
 20
-6.970802710703538
 30
0.0
 10
2.603722343585597
 20
-6.953954123233175
 30
0.0
 10
2.617420481238582
 20
-6.940235607165138
 30
0.0
 10
2.634289446351835
 20
-6.940235607165138
 30
0.0
 10
2.651170703620058
 20
-6.940235607165138
 30
0.0
 10
2.664856549118035
 20
-6.953954123233175
 30
0.0
 10
2.664856549118035
 20
-6.970802710703538
 30
0.0
  0
SPLINE
  5
CC
330
1F
100
AcDbEntity
  8
LAYER_1
 62
   240
100
AcDbSpline
210
0.0
220
0.0
230
1.0
 70
    11
 71
     3
 72
    17
 73
    13
 74
     0
 42
0.0000000001
 43
0.0000000001
 12
1.0
 22
0.0
 32
0.0
 13
1.0
 23
0.0
 33
0.0
 40
0.0
 40
0.0
 40
0.0
 40
0.0
 40
1.0
 40
1.0
 40
1.0
 40
2.0
 40
2.0
 40
2.0
 40
3.0
 40
3.0
 40
3.0
 40
4.0
 40
4.0
 40
4.0
 40
4.0
 10
3.085858818958349
 20
-6.968573349952142
 30
0.0
 10
3.085858818958349
 20
-6.985423295960445
 30
0.0
 10
3.072174266684379
 20
-6.999140453490541
 30
0.0
 10
3.055291716192136
 20
-6.999140453490541
 30
0.0
 10
3.038422826709911
 20
-6.999140453490541
 30
0.0
 10
3.02472461342591
 20
-6.985423295960445
 30
0.0
 10
3.02472461342591
 20
-6.968573349952142
 30
0.0
 10
3.02472461342591
 20
-6.951724762481755
 30
0.0
 10
3.038422826709911
 20
-6.93800624641373
 30
0.0
 10
3.055291716192136
 20
-6.93800624641373
 30
0.0
 10
3.072174266684379
 20
-6.93800624641373
 30
0.0
 10
3.085858818958349
 20
-6.951724762481755
 30
0.0
 10
3.085858818958349
 20
-6.968573349952142
 30
0.0
  0
SPLINE
  5
CD
330
1F
100
AcDbEntity
  8
LAYER_1
 62
   240
100
AcDbSpline
210
0.0
220
0.0
230
1.0
 70
    11
 71
     3
 72
    17
 73
    13
 74
     0
 42
0.0000000001
 43
0.0000000001
 12
1.0
 22
0.0
 32
0.0
 13
1.0
 23
0.0
 33
0.0
 40
0.0
 40
0.0
 40
0.0
 40
0.0
 40
1.0
 40
1.0
 40
1.0
 40
2.0
 40
2.0
 40
2.0
 40
3.0
 40
3.0
 40
3.0
 40
4.0
 40
4.0
 40
4.0
 40
4.0
 10
3.516484088617555
 20
-6.970802710703538
 30
0.0
 10
3.516484088617555
 20
-6.987651298173924
 30
0.0
 10
3.502799536343597
 20
-7.001369814241949
 30
0.0
 10
3.485916985851342
 20
-7.001369814241949
 30
0.0
 10
3.469048020738076
 20
-7.001369814241949
 30
0.0
 10
3.455349883085104
 20
-6.987651298173924
 30
0.0
 10
3.455349883085104
 20
-6.970802710703538
 30
0.0
 10
3.455349883085104
 20
-6.953954123233175
 30
0.0
 10
3.469048020738076
 20
-6.940235607165138
 30
0.0
 10
3.485916985851342
 20
-6.940235607165138
 30
0.0
 10
3.502799536343597
 20
-6.940235607165138
 30
0.0
 10
3.516484088617555
 20
-6.953954123233175
 30
0.0
 10
3.516484088617555
 20
-6.970802710703538
 30
0.0
  0
SPLINE
  5
CE
330
1F
100
AcDbEntity
  8
LAYER_1
 62
   240
100
AcDbSpline
210
0.0
220
0.0
230
1.0
 70
    11
 71
     3
 72
    17
 73
    13
 74
     0
 42
0.0000000001
 43
0.0000000001
 12
1.0
 22
0.0
 32
0.0
 13
1.0
 23
0.0
 33
0.0
 40
0.0
 40
0.0
 40
0.0
 40
0.0
 40
1.0
 40
1.0
 40
1.0
 40
2.0
 40
2.0
 40
2.0
 40
3.0
 40
3.0
 40
3.0
 40
4.0
 40
4.0
 40
4.0
 40
4.0
 10
2.224607006862281
 20
-7.395518349721416
 30
0.0
 10
2.224607006862281
 20
-7.412366937191804
 30
0.0
 10
2.210922400820891
 20
-7.426085453259828
 30
0.0
 10
2.194039903323882
 20
-7.426085453259828
 30
0.0
 10
2.177170885215395
 20
-7.426085453259828
 30
0.0
 10
2.16347279978547
 20
-7.412366937191804
 30
0.0
 10
2.16347279978547
 20
-7.395518349721416
 30
0.0
 10
2.16347279978547
 20
-7.378669762251042
 30
0.0
 10
2.177170885215395
 20
-7.364951246183018
 30
0.0
 10
2.194039903323882
 20
-7.364951246183018
 30
0.0
 10
2.210922400820891
 20
-7.364951246183018
 30
0.0
 10
2.224607006862281
 20
-7.378669762251042
 30
0.0
 10
2.224607006862281
 20
-7.395518349721416
 30
0.0
  0
SPLINE
  5
CF
330
1F
100
AcDbEntity
  8
LAYER_1
 62
   240
100
AcDbSpline
210
0.0
220
0.0
230
1.0
 70
    11
 71
     3
 72
    17
 73
    13
 74
     0
 42
0.0000000001
 43
0.0000000001
 12
1.0
 22
0.0
 32
0.0
 13
1.0
 23
0.0
 33
0.0
 40
0.0
 40
0.0
 40
0.0
 40
0.0
 40
1.0
 40
1.0
 40
1.0
 40
2.0
 40
2.0
 40
2.0
 40
3.0
 40
3.0
 40
3.0
 40
4.0
 40
4.0
 40
4.0
 40
4.0
 10
2.662712776310716
 20
-7.395518349721416
 30
0.0
 10
2.662712776310716
 20
-7.412366937191804
 30
0.0
 10
2.649028224036733
 20
-7.426085453259828
 30
0.0
 10
2.63214567354449
 20
-7.426085453259828
 30
0.0
 10
2.615276708431225
 20
-7.426085453259828
 30
0.0
 10
2.601578570778252
 20
-7.412366937191804
 30
0.0
 10
2.601578570778252
 20
-7.395518349721416
 30
0.0
 10
2.601578570778252
 20
-7.378669762251042
 30
0.0
 10
2.615276708431225
 20
-7.364951246183018
 30
0.0
 10
2.63214567354449
 20
-7.364951246183018
 30
0.0
 10
2.649028224036733
 20
-7.364951246183018
 30
0.0
 10
2.662712776310716
 20
-7.378669762251042
 30
0.0
 10
2.662712776310716
 20
-7.395518349721416
 30
0.0
  0
SPLINE
  5
D0
330
1F
100
AcDbEntity
  8
LAYER_1
 62
   240
100
AcDbSpline
210
0.0
220
0.0
230
1.0
 70
    11
 71
     3
 72
    17
 73
    13
 74
     0
 42
0.0000000001
 43
0.0000000001
 12
1.0
 22
0.0
 32
0.0
 13
1.0
 23
0.0
 33
0.0
 40
0.0
 40
0.0
 40
0.0
 40
0.0
 40
1.0
 40
1.0
 40
1.0
 40
2.0
 40
2.0
 40
2.0
 40
3.0
 40
3.0
 40
3.0
 40
4.0
 40
4.0
 40
4.0
 40
4.0
 10
3.088566461892254
 20
-7.393288988970021
 30
0.0
 10
3.088566461892254
 20
-7.410138934978325
 30
0.0
 10
3.074880474182603
 20
-7.423856092508433
 30
0.0
 10
3.057999358353843
 20
-7.423856092508433
 30
0.0
 10
3.041130317114999
 20
-7.423856092508433
 30
0.0
 10
3.027432254815444
 20
-7.410138934978325
 30
0.0
 10
3.027432254815444
 20
-7.393288988970021
 30
0.0
 10
3.027432254815444
 20
-7.376440401499659
 30
0.0
 10
3.041130317114999
 20
-7.362721885431609
 30
0.0
 10
3.057999358353843
 20
-7.362721885431609
 30
0.0
 10
3.074880474182603
 20
-7.362721885431609
 30
0.0
 10
3.088566461892254
 20
-7.376440401499659
 30
0.0
 10
3.088566461892254
 20
-7.393288988970021
 30
0.0
  0
SPLINE
  5
D1
330
1F
100
AcDbEntity
  8
LAYER_1
 62
   240
100
AcDbSpline
210
0.0
220
0.0
230
1.0
 70
    11
 71
     3
 72
    17
 73
    13
 74
     0
 42
0.0000000001
 43
0.0000000001
 12
1.0
 22
0.0
 32
0.0
 13
1.0
 23
0.0
 33
0.0
 40
0.0
 40
0.0
 40
0.0
 40
0.0
 40
1.0
 40
1.0
 40
1.0
 40
2.0
 40
2.0
 40
2.0
 40
3.0
 40
3.0
 40
3.0
 40
4.0
 40
4.0
 40
4.0
 40
4.0
 10
3.523847364039473
 20
-7.395518349721416
 30
0.0
 10
3.523847364039473
 20
-7.412366937191804
 30
0.0
 10
3.51016281176549
 20
-7.426085453259828
 30
0.0
 10
3.493280261273248
 20
-7.426085453259828
 30
0.0
 10
3.476411296159995
 20
-7.426085453259828
 30
0.0
 10
3.46271315850701
 20
-7.412366937191804
 30
0.0
 10
3.46271315850701
 20
-7.395518349721416
 30
0.0
 10
3.46271315850701
 20
-7.378669762251042
 30
0.0
 10
3.476411296159995
 20
-7.364951246183018
 30
0.0
 10
3.493280261273248
 20
-7.364951246183018
 30
0.0
 10
3.51016281176549
 20
-7.364951246183018
 30
0.0
 10
3.523847364039473
 20
-7.378669762251042
 30
0.0
 10
3.523847364039473
 20
-7.395518349721416
 30
0.0
  0
SPLINE
  5
D2
330
1F
100
AcDbEntity
  8
LAYER_1
 62
   240
100
AcDbSpline
210
0.0
220
0.0
230
1.0
 70
    11
 71
     3
 72
    17
 73
    13
 74
     0
 42
0.0000000001
 43
0.0000000001
 12
1.0
 22
0.0
 32
0.0
 13
1.0
 23
0.0
 33
0.0
 40
0.0
 40
0.0
 40
0.0
 40
0.0
 40
1.0
 40
1.0
 40
1.0
 40
2.0
 40
2.0
 40
2.0
 40
3.0
 40
3.0
 40
3.0
 40
4.0
 40
4.0
 40
4.0
 40
4.0
 10
2.217064350670057
 20
-7.791325660019551
 30
0.0
 10
2.217064350670057
 20
-7.808174247489925
 30
0.0
 10
2.203379798396099
 20
-7.821892763557975
 30
0.0
 10
2.186497247903844
 20
-7.821892763557975
 30
0.0
 10
2.169628282790604
 20
-7.821892763557975
 30
0.0
 10
2.155930145137618
 20
-7.808174247489925
 30
0.0
 10
2.155930145137618
 20
-7.791325660019551
 30
0.0
 10
2.155930145137618
 20
-7.774475714011246
 30
0.0
 10
2.169628282790604
 20
-7.760758556481151
 30
0.0
 10
2.186497247903844
 20
-7.760758556481151
 30
0.0
 10
2.203379798396099
 20
-7.760758556481151
 30
0.0
 10
2.217064350670057
 20
-7.774475714011246
 30
0.0
 10
2.217064350670057
 20
-7.791325660019551
 30
0.0
  0
SPLINE
  5
D3
330
1F
100
AcDbEntity
  8
LAYER_1
 62
   240
100
AcDbSpline
210
0.0
220
0.0
230
1.0
 70
    11
 71
     3
 72
    17
 73
    13
 74
     0
 42
0.0000000001
 43
0.0000000001
 12
1.0
 22
0.0
 32
0.0
 13
1.0
 23
0.0
 33
0.0
 40
0.0
 40
0.0
 40
0.0
 40
0.0
 40
1.0
 40
1.0
 40
1.0
 40
2.0
 40
2.0
 40
2.0
 40
3.0
 40
3.0
 40
3.0
 40
4.0
 40
4.0
 40
4.0
 40
4.0
 10
2.659138463093907
 20
-7.791325660019551
 30
0.0
 10
2.659138463093907
 20
-7.808174247489925
 30
0.0
 10
2.645452552282045
 20
-7.821892763557975
 30
0.0
 10
2.628571360327681
 20
-7.821892763557975
 30
0.0
 10
2.611702395214428
 20
-7.821892763557975
 30
0.0
 10
2.598004257561469
 20
-7.808174247489925
 30
0.0
 10
2.598004257561469
 20
-7.791325660019551
 30
0.0
 10
2.598004257561469
 20
-7.774475714011246
 30
0.0
 10
2.611702395214428
 20
-7.760758556481151
 30
0.0
 10
2.628571360327681
 20
-7.760758556481151
 30
0.0
 10
2.645452552282045
 20
-7.760758556481151
 30
0.0
 10
2.659138463093907
 20
-7.774475714011246
 30
0.0
 10
2.659138463093907
 20
-7.791325660019551
 30
0.0
  0
SPLINE
  5
D4
330
1F
100
AcDbEntity
  8
LAYER_1
 62
   240
100
AcDbSpline
210
0.0
220
0.0
230
1.0
 70
    11
 71
     3
 72
    17
 73
    13
 74
     0
 42
0.0000000001
 43
0.0000000001
 12
1.0
 22
0.0
 32
0.0
 13
1.0
 23
0.0
 33
0.0
 40
0.0
 40
0.0
 40
0.0
 40
0.0
 40
1.0
 40
1.0
 40
1.0
 40
2.0
 40
2.0
 40
2.0
 40
3.0
 40
3.0
 40
3.0
 40
4.0
 40
4.0
 40
4.0
 40
4.0
 10
3.089142405064384
 20
-7.789096299268143
 30
0.0
 10
3.089142405064384
 20
-7.80594488673853
 30
0.0
 10
3.075457852790426
 20
-7.819663402806567
 30
0.0
 10
3.058575302298171
 20
-7.819663402806567
 30
0.0
 10
3.041706337184918
 20
-7.819663402806567
 30
0.0
 10
3.028008199531945
 20
-7.80594488673853
 30
0.0
 10
3.028008199531945
 20
-7.789096299268143
 30
0.0
 10
3.028008199531945
 20
-7.772247711797793
 30
0.0
 10
3.041706337184918
 20
-7.758529195729756
 30
0.0
 10
3.058575302298171
 20
-7.758529195729756
 30
0.0
 10
3.075457852790426
 20
-7.758529195729756
 30
0.0
 10
3.089142405064384
 20
-7.772247711797793
 30
0.0
 10
3.089142405064384
 20
-7.789096299268143
 30
0.0
  0
SPLINE
  5
D5
330
1F
100
AcDbEntity
  8
LAYER_1
 62
   240
100
AcDbSpline
210
0.0
220
0.0
230
1.0
 70
    11
 71
     3
 72
    17
 73
    13
 74
     0
 42
0.0000000001
 43
0.0000000001
 12
1.0
 22
0.0
 32
0.0
 13
1.0
 23
0.0
 33
0.0
 40
0.0
 40
0.0
 40
0.0
 40
0.0
 40
1.0
 40
1.0
 40
1.0
 40
2.0
 40
2.0
 40
2.0
 40
3.0
 40
3.0
 40
3.0
 40
4.0
 40
4.0
 40
4.0
 40
4.0
 10
3.530568051034316
 20
-7.791325660019551
 30
0.0
 10
3.530568051034316
 20
-7.808174247489925
 30
0.0
 10
3.516882140222467
 20
-7.821892763557975
 30
0.0
 10
3.500000948268103
 20
-7.821892763557975
 30
0.0
 10
3.483131983154863
 20
-7.821892763557975
 30
0.0
 10
3.46943384550189
 20
-7.808174247489925
 30
0.0
 10
3.46943384550189
 20
-7.791325660019551
 30
0.0
 10
3.46943384550189
 20
-7.774475714011246
 30
0.0
 10
3.483131983154863
 20
-7.760758556481151
 30
0.0
 10
3.500000948268103
 20
-7.760758556481151
 30
0.0
 10
3.516882140222467
 20
-7.760758556481151
 30
0.0
 10
3.530568051034316
 20
-7.774475714011246
 30
0.0
 10
3.530568051034316
 20
-7.791325660019551
 30
0.0
  0
POLYLINE
  5
D6
330
1F
100
AcDbEntity
  8
LAYER_1
 62
   240
100
AcDb2dPolyline
 66
     1
 10
0.0
 20
0.0
 30
0.0
  0
VERTEX
  5
D7
330
D6
100
AcDbEntity
  8
LAYER_1
 62
   240
100
AcDbVertex
100
AcDb2dVertex
 10
3.464877574168478
 20
-1.285945021471725
 30
0.0
  0
VERTEX
  5
D8
330
D6
100
AcDbEntity
  8
LAYER_1
 62
   240
100
AcDbVertex
100
AcDb2dVertex
 10
3.582627488175528
 20
-8.396298904948253
 30
0.0
  0
SEQEND
  5
D9
330
D6
100
AcDbEntity
  8
LAYER_1
 62
   240
  0
POLYLINE
  5
DA
330
1F
100
AcDbEntity
  8
LAYER_1
 62
   240
100
AcDb2dPolyline
 66
     1
 10
0.0
 20
0.0
 30
0.0
  0
VERTEX
  5
DB
330
DA
100
AcDbEntity
  8
LAYER_1
 62
   240
100
AcDbVertex
100
AcDb2dVertex
 10
3.609193697735413
 20
-8.396616802825065
 30
0.0
  0
VERTEX
  5
DC
330
DA
100
AcDbEntity
  8
LAYER_1
 62
   240
100
AcDbVertex
100
AcDb2dVertex
 10
3.49422199373531
 20
-1.285945021471725
 30
0.0
  0
SEQEND
  5
DD
330
DA
100
AcDbEntity
  8
LAYER_1
 62
   240
  0
POLYLINE
  5
DE
330
1F
100
AcDbEntity
  8
LAYER_1
 62
   240
100
AcDb2dPolyline
 66
     1
 10
0.0
 20
0.0
 30
0.0
  0
VERTEX
  5
DF
330
DE
100
AcDbEntity
  8
LAYER_1
 62
   240
100
AcDbVertex
100
AcDb2dVertex
 10
3.098607556355508
 20
-1.285945021471725
 30
0.0
  0
VERTEX
  5
E0
330
DE
100
AcDbEntity
  8
LAYER_1
 62
   240
100
AcDbVertex
100
AcDb2dVertex
 10
3.133339859170165
 20
-8.490308371515122
 30
0.0
  0
SEQEND
  5
E1
330
DE
100
AcDbEntity
  8
LAYER_1
 62
   240
  0
POLYLINE
  5
E2
330
1F
100
AcDbEntity
  8
LAYER_1
 62
   240
100
AcDb2dPolyline
 66
     1
 10
0.0
 20
0.0
 30
0.0
  0
VERTEX
  5
E3
330
E2
100
AcDbEntity
  8
LAYER_1
 62
   240
100
AcDbVertex
100
AcDb2dVertex
 10
3.184231493117029
 20
-8.47265009543547
 30
0.0
  0
VERTEX
  5
E4
330
E2
100
AcDbEntity
  8
LAYER_1
 62
   240
100
AcDbVertex
100
AcDb2dVertex
 10
3.126666166649796
 20
-1.285945021471725
 30
0.0
  0
SEQEND
  5
E5
330
E2
100
AcDbEntity
  8
LAYER_1
 62
   240
  0
POLYLINE
  5
E6
330
1F
100
AcDbEntity
  8
LAYER_1
 62
   240
100
AcDb2dPolyline
 66
     1
 10
0.0
 20
0.0
 30
0.0
  0
VERTEX
  5
E7
330
E6
100
AcDbEntity
  8
LAYER_1
 62
   240
100
AcDbVertex
100
AcDb2dVertex
 10
2.735728754789155
 20
-1.285945025639358
 30
0.0
  0
VERTEX
  5
E8
330
E6
100
AcDbEntity
  8
LAYER_1
 62
   240
100
AcDbVertex
100
AcDb2dVertex
 10
2.693831444872507
 20
-8.454328857011129
 30
0.0
  0
SEQEND
  5
E9
330
E6
100
AcDbEntity
  8
LAYER_1
 62
   240
  0
POLYLINE
  5
EA
330
1F
100
AcDbEntity
  8
LAYER_1
 62
   240
100
AcDb2dPolyline
 66
     1
 10
0.0
 20
0.0
 30
0.0
  0
VERTEX
  5
EB
330
EA
100
AcDbEntity
  8
LAYER_1
 62
   240
100
AcDbVertex
100
AcDb2dVertex
 10
2.734987962664693
 20
-8.470089255595528
 30
0.0
  0
VERTEX
  5
EC
330
EA
100
AcDbEntity
  8
LAYER_1
 62
   240
100
AcDbVertex
100
AcDb2dVertex
 10
2.76546954586105
 20
-1.285945025639358
 30
0.0
  0
SEQEND
  5
ED
330
EA
100
AcDbEntity
  8
LAYER_1
 62
   240
  0
POLYLINE
  5
EE
330
1F
100
AcDbEntity
  8
LAYER_1
 62
   240
100
AcDb2dPolyline
 66
     1
 10
0.0
 20
0.0
 30
0.0
  0
VERTEX
  5
EF
330
EE
100
AcDbEntity
  8
LAYER_1
 62
   240
100
AcDbVertex
100
AcDb2dVertex
 10
2.389813079639692
 20
-1.285945021471725
 30
0.0
  0
VERTEX
  5
F0
330
EE
100
AcDbEntity
  8
LAYER_1
 62
   240
100
AcDbVertex
100
AcDb2dVertex
 10
2.276884671318132
 20
-8.403317111920689
 30
0.0
  0
SEQEND
  5
F1
330
EE
100
AcDbEntity
  8
LAYER_1
 62
   240
  0
POLYLINE
  5
F2
330
1F
100
AcDbEntity
  8
LAYER_1
 62
   240
100
AcDb2dPolyline
 66
     1
 10
0.0
 20
0.0
 30
0.0
  0
VERTEX
  5
F3
330
F2
100
AcDbEntity
  8
LAYER_1
 62
   240
100
AcDbVertex
100
AcDb2dVertex
 10
2.306451187653478
 20
-8.403317111920689
 30
0.0
  0
VERTEX
  5
F4
330
F2
100
AcDbEntity
  8
LAYER_1
 62
   240
100
AcDbVertex
100
AcDb2dVertex
 10
2.417469546362478
 20
-1.285945021471725
 30
0.0
  0
SEQEND
  5
F5
330
F2
100
AcDbEntity
  8
LAYER_1
 62
   240
  0
POLYLINE
  5
F6
330
1F
100
AcDbEntity
  8
LAYER_1
 62
    29
100
AcDb2dPolyline
 66
     1
 10
0.0
 20
0.0
 30
0.0
  0
VERTEX
  5
F7
330
F6
100
AcDbEntity
  8
LAYER_1
 62
    29
100
AcDbVertex
100
AcDb2dVertex
 10
2.233821886687464
 20
-1.285945021471725
 30
0.0
  0
VERTEX
  5
F8
330
F6
100
AcDbEntity
  8
LAYER_1
 62
    29
100
AcDbVertex
100
AcDb2dVertex
 10
2.239004629629625
 20
-1.112847222222222
 30
0.0
  0
VERTEX
  5
F9
330
F6
100
AcDbEntity
  8
LAYER_1
 62
    29
100
AcDbVertex
100
AcDb2dVertex
 10
3.64922601076383
 20
-1.112847222222222
 30
0.0
  0
VERTEX
  5
FA
330
F6
100
AcDbEntity
  8
LAYER_1
 62
    29
100
AcDbVertex
100
AcDb2dVertex
 10
3.655756049771601
 20
-1.285945021471725
 30
0.0
  0
SEQEND
  5
FB
330
F6
100
AcDbEntity
  8
LAYER_1
 62
    29
  0
POLYLINE
  5
FC
330
1F
100
AcDbEntity
  8
LAYER_1
 62
    29
100
AcDb2dPolyline
 66
     1
 10
0.0
 20
0.0
 30
0.0
  0
VERTEX
  5
FD
330
FC
100
AcDbEntity
  8
LAYER_1
 62
    29
100
AcDbVertex
100
AcDb2dVertex
 10
3.658664794551846
 20
-1.373458870069119
 30
0.0
  0
VERTEX
  5
FF
330
FC
100
AcDbEntity
  8
0
100
AcDbVertex
100
AcDb2dVertex
 10
3.658664794551846
 20
-1.373458870069119
 30
0.0
  0
SEQEND
  5
FE
330
FC
100
AcDbEntity
  8
LAYER_1
 62
    29
  0
ENDSEC
  0
SECTION
  2
OBJECTS
  0
DICTIONARY
  5
C
330
0
100
AcDbDictionary
  3
ACAD_GROUP
350
D
  3
ACAD_LAYOUT
350
1A
  3
ACAD_MATERIAL
350
3B
  3
ACAD_MLEADERSTYLE
350
102
  3
ACAD_MLINESTYLE
350
17
  3
ACAD_PLOTSETTINGS
350
19
  3
ACAD_VISUALSTYLE
350
2A
  3
ACDBVARIABLEDICTIONARY
350
100
1001
ACAD
1000
TREAT_AS_HARD
1070
     0
  0
DICTIONARY
  5
D
102
{ACAD_REACTORS
330
C
102
}
330
C
100
AcDbDictionary
1001
ACAD
1000
TREAT_AS_HARD
1070
     0
  0
DICTIONARY
  5
1A
102
{ACAD_REACTORS
330
C
102
}
330
C
100
AcDbDictionary
1001
ACAD
1000
TREAT_AS_HARD
1070
     0
  0
DICTIONARY
  5
3B
102
{ACAD_REACTORS
330
C
102
}
330
C
100
AcDbDictionary
  3
BYBLOCK
350
3D
  3
BYLAYER
350
3C
  3
GLOBAL
350
3E
1001
ACAD
1000
TREAT_AS_HARD
1070
     0
  0
DICTIONARY
  5
102
102
{ACAD_REACTORS
330
C
102
}
330
C
100
AcDbDictionary
1001
ACAD
1000
TREAT_AS_HARD
1070
     0
  0
DICTIONARY
  5
17
102
{ACAD_REACTORS
330
C
102
}
330
C
100
AcDbDictionary
  3
STANDARD
350
18
1001
ACAD
1000
TREAT_AS_HARD
1070
     0
  0
DICTIONARY
  5
19
102
{ACAD_REACTORS
330
C
102
}
330
C
100
AcDbDictionary
1001
ACAD
1000
TREAT_AS_HARD
1070
     0
  0
DICTIONARY
  5
2A
102
{ACAD_REACTORS
330
C
102
}
330
C
100
AcDbDictionary
  3
2DWIREFRAME
350
2F
  3
3DWIREFRAME
350
30
  3
3D_HIDDEN
350
31
  3
BASIC
350
32
  3
BRIGHTEN
350
36
  3
COLORCHANGE
350
3A
  3
CONCEPTUAL
350
34
  3
DIM
350
35
  3
FACEPATTERN
350
39
  3
FLAT
350
2B
  3
FLATWITHEDGES
350
2C
  3
GOURAUD
350
2D
  3
GOURAUDWITHEDGES
350
2E
  3
LINEPATTERN
350
38
  3
REALISTIC
350
33
  3
THICKEN
350
37
1001
ACAD
1000
TREAT_AS_HARD
1070
     0
  0
DICTIONARY
  5
100
102
{ACAD_REACTORS
330
C
102
}
330
C
100
AcDbDictionary
  3
DIMASSOC
350
103
  3
HIDETEXT
350
104
1001
ACAD
1000
TREAT_AS_HARD
1070
     0
  0
MATERIAL
  5
3D
102
{ACAD_REACTORS
330
3B
102
}
102
{ACAD_XDICTIONARY
360
107
102
}
330
3B
100
AcDbMaterial
  1
ByBlock
  0
MATERIAL
  5
3C
102
{ACAD_REACTORS
330
3B
102
}
102
{ACAD_XDICTIONARY
360
105
102
}
330
3B
100
AcDbMaterial
  1
ByLayer
  0
MATERIAL
  5
3E
102
{ACAD_REACTORS
330
3B
102
}
102
{ACAD_XDICTIONARY
360
109
102
}
330
3B
100
AcDbMaterial
  1
Global
  0
MLINESTYLE
  5
18
102
{ACAD_REACTORS
330
17
102
}
330
17
100
AcDbMlineStyle
  2
Standard
 70
     0
  3

 62
   256
 51
90.0
 52
90.0
 71
     2
 49
0.5
 62
   256
  6
BYLAYER
 49
-0.5
 62
   256
  6
BYLAYER
  0
ACAD_PROXY_OBJECT
  5
2F
102
{ACAD_REACTORS
330
2A
102
}
330
2A
100
AcDbZombieObject
 90
      499
 91
      501
 93
      436
310
42CC9915DA5C99599C985B595049028333333333333E3BF0000000000000FB0107901411070040501600405405064090741402480A0340
1001
ACAD
1000
AcDbSavedByObjectVersion
1070
     0
  0
ACAD_PROXY_OBJECT
  5
30
102
{ACAD_REACTORS
330
2A
102
}
330
2A
100
AcDbZombieObject
 90
      499
 91
      501
 93
      436
310
42CCD915DA5C99599C985B595059028333333333333E3BF0000000000000FB0107901411070040501600405405064090741402480A0340
1001
ACAD
1000
AcDbSavedByObjectVersion
1070
     0
  0
ACAD_PROXY_OBJECT
  5
31
102
{ACAD_REACTORS
330
2A
102
}
330
2A
100
AcDbZombieObject
 90
      499
 91
      501
 93
      500
310
424CD108121A5919195B90640502408333333333333E3BF0000000000000FB01079024090700405020000000000001110200405405064090740C02480A0340
1001
ACAD
1000
AcDbSavedByObjectVersion
1070
     0
  0
ACAD_PROXY_OBJECT
  5
32
102
{ACAD_REACTORS
330
2A
102
}
330
2A
100
AcDbZombieObject
 90
      499
 91
      501
 93
      388
310
4150985CDA58D07406404333333333333E3BF0000000000000FB0107A41107004050150841D405064090741402480A0350
1001
ACAD
1000
AcDbSavedByObjectVersion
1070
     0
  0
ACAD_PROXY_OBJECT
  5
36
102
{ACAD_REACTORS
330
2A
102
}
330
2A
100
AcDbZombieObject
 90
      499
 91
      501
 93
      428
310
42109C9A59DA1D195B90C409028333333333333E3BF0000000000000FB010790141107004050150841D405064090741402480A029950
1001
ACAD
1000
AcDbSavedByObjectVersion
1070
     0
  0
ACAD_PROXY_OBJECT
  5
3A
102
{ACAD_REACTORS
330
2A
102
}
330
2A
100
AcDbZombieObject
 90
      499
 91
      501
 93
      452
310
42D0DBDB1BDC90DA185B99D95104090240C333333333333E3BF0000000000000FB0108901411070040501508421405064090741402480A0350
1001
ACAD
1000
AcDbSavedByObjectVersion
1070
     0
  0
ACAD_PROXY_OBJECT
  5
34
102
{ACAD_REACTORS
330
2A
102
}
330
2A
100
AcDbZombieObject
 90
      499
 91
      501
 93
      500
310
4290DBDB98D95C1D1D585B10940D028333333333333E3BF0000000000000FB0107902409070040501000000000000111010841D405064090740C02480A0340
1001
ACAD
1000
AcDbSavedByObjectVersion
1070
     0
  0
ACAD_PROXY_OBJECT
  5
35
102
{ACAD_REACTORS
330
2A
102
}
330
2A
100
AcDbZombieObject
 90
      499
 91
      501
 93
      412
310
40D11A5B50B409028333333333333E3BF0000000000000FB010790141107004050150841D405064090741402480A02677FFFFFD0
1001
ACAD
1000
AcDbSavedByObjectVersion
1070
     0
  0
ACAD_PROXY_OBJECT
  5
39
102
{ACAD_REACTORS
330
2A
102
}
330
2A
100
AcDbZombieObject
 90
      499
 91
      501
 93
      444
310
42D19858D95C185D1D195C9B90F409028333333333333E3BF0000000000000FB010790141107004050150841D405064090741402480A0350
1001
ACAD
1000
AcDbSavedByObjectVersion
1070
     0
  0
ACAD_PROXY_OBJECT
  5
2B
102
{ACAD_REACTORS
330
2A
102
}
330
2A
100
AcDbZombieObject
 90
      499
 91
      501
 93
      388
310
41119B185D240901404333333333333E3BF0000000000000F9010740A41107004050150841D405064090741402480A1B50
1001
ACAD
1000
AcDbSavedByObjectVersion
1070
     0
  0
ACAD_PROXY_OBJECT
  5
2C
102
{ACAD_REACTORS
330
2A
102
}
330
2A
100
AcDbZombieObject
 90
      499
 91
      501
 93
      476
310
43519B185D15DA5D1A115919D95CD0140901404333333333333E3BF0000000000000F9010740901411070040501600405405064090741402480A1B50
1001
ACAD
1000
AcDbSavedByObjectVersion
1070
     0
  0
ACAD_PROXY_OBJECT
  5
2D
102
{ACAD_REACTORS
330
2A
102
}
330
2A
100
AcDbZombieObject
 90
      499
 91
      501
 93
      412
310
41D1DBDD5C985D5910240902404333333333333E3BF0000000000000F9010740A411070040501641D405064090741402480A1B50
1001
ACAD
1000
AcDbSavedByObjectVersion
1070
     0
  0
ACAD_PROXY_OBJECT
  5
2E
102
{ACAD_REACTORS
330
2A
102
}
330
2A
100
AcDbZombieObject
 90
      499
 91
      501
 93
      500
310
4411DBDD5C985D5915DA5D1A115919D95CD0340902404333333333333E3BF0000000000000F9010740901411070040501600405405064090741402480A1B50
1001
ACAD
1000
AcDbSavedByObjectVersion
1070
     0
  0
ACAD_PROXY_OBJECT
  5
38
102
{ACAD_REACTORS
330
2A
102
}
330
2A
100
AcDbZombieObject
 90
      499
 91
      501
 93
      444
310
42D31A5B995C185D1D195C9B90E409028333333333333E3BF0000000000000FB010790141107004050750841D405064090741402483A0350
1001
ACAD
1000
AcDbSavedByObjectVersion
1070
     0
  0
ACAD_PROXY_OBJECT
  5
33
102
{ACAD_REACTORS
330
2A
102
}
330
2A
100
AcDbZombieObject
 90
      499
 91
      501
 93
      420
310
425499585B1A5CDD1A58D08409028333333333333E3BF0000000000000FB01079019070040501508421405064090741402480A1B40
1001
ACAD
1000
AcDbSavedByObjectVersion
1070
     0
  0
ACAD_PROXY_OBJECT
  5
37
102
{ACAD_REACTORS
330
2A
102
}
330
2A
100
AcDbZombieObject
 90
      499
 91
      501
 93
      412
310
41D51A1A58DAD95B90D409028333333333333E3BF0000000000000FB010790141107004050150C41D405064090741402480A0350
1001
ACAD
1000
AcDbSavedByObjectVersion
1070
     0
  0
DICTIONARYVAR
  5
103
102
{ACAD_REACTORS
330
100
102
}
330
100
100
DictionaryVariables
280
     0
  1
2
  0
DICTIONARYVAR
  5
104
102
{ACAD_REACTORS
330
100
102
}
330
100
100
DictionaryVariables
280
     0
  1
1
  0
DICTIONARY
  5
107
330
3D
100
AcDbDictionary
  3
ACAD_XREC_ROUNDTRIP
360
108
1001
ACAD
1000
TREAT_AS_HARD
1070
     1
  0
DICTIONARY
  5
105
330
3C
100
AcDbDictionary
  3
ACAD_XREC_ROUNDTRIP
360
106
1001
ACAD
1000
TREAT_AS_HARD
1070
     1
  0
DICTIONARY
  5
109
330
3E
100
AcDbDictionary
  3
ACAD_XREC_ROUNDTRIP
360
10A
1001
ACAD
1000
TREAT_AS_HARD
1070
     1
  0
XRECORD
  5
108
102
{ACAD_REACTORS
330
107
102
}
330
107
100
AcDbXrecord
102
MATERIAL
148
0.0
149
0.0
149
0.0
 93
        0
 94
      127
282
     0
 72
     1
 77
     1
171
     1
175
     1
179
     1
273
     0
  0
XRECORD
  5
106
102
{ACAD_REACTORS
330
105
102
}
330
105
100
AcDbXrecord
102
MATERIAL
148
0.0
149
0.0
149
0.0
 93
        0
 94
      127
282
     0
 72
     1
 77
     1
171
     1
175
     1
179
     1
273
     0
  0
XRECORD
  5
10A
102
{ACAD_REACTORS
330
109
102
}
330
109
100
AcDbXrecord
102
MATERIAL
148
0.0
149
0.0
149
0.0
 93
        0
 94
      127
282
     0
 72
     1
 77
     1
171
     1
175
     1
179
     1
273
     0
  0
ENDSEC
  0
EOF
